<svg width="320" height="564" viewBox="0 0 320 564" fill="none" xmlns="http://www.w3.org/2000/svg">
<rect width="320" height="564" fill="white"/>
<path d="M320 0H0V564H320V0Z" fill="#1C2B3F"/>
<path d="M120.449 164.241H106.782V188.775H92.7863V164.241H52.7747L51.9514 159.96C52.4454 156.831 53.598 153.373 55.4092 149.257C57.2204 145.305 59.361 141.024 61.8308 136.743C64.3007 132.462 67.0998 128.016 70.2283 123.571C73.3568 119.125 76.3206 115.009 79.4491 111.221C82.5776 107.27 85.3767 103.812 88.1759 100.848C90.975 97.7196 93.4449 95.4144 95.5854 93.6031H106.947V153.209H120.613V164.241H120.449ZM92.7863 153.044V116.49C92.7863 115.832 92.7863 115.009 92.7863 114.185C92.7863 113.362 92.7863 112.374 92.9509 111.551C92.7863 111.715 92.4569 112.045 92.4569 112.374C92.2923 112.703 92.1276 112.868 91.963 113.197C91.3043 113.856 90.1517 115.009 88.9991 116.49C87.8466 117.972 86.3647 119.784 84.7181 121.759C83.2362 123.735 81.5896 126.04 79.7784 128.51C77.9672 130.98 76.3206 133.615 74.674 136.414C73.0275 139.213 71.5455 142.012 70.0636 144.811C68.5817 147.61 67.2645 150.41 66.2766 153.209H92.7863V153.044Z" fill="#88B8BD"/>
<path d="M197.837 141.024C197.837 148.763 197.014 155.514 195.532 161.606C194.05 167.699 191.91 172.803 189.111 177.084C186.311 181.365 182.854 184.494 178.737 186.799C174.621 188.939 170.01 190.092 164.906 190.092C159.802 190.092 155.191 189.104 151.404 186.964C147.452 184.823 144.159 181.859 141.525 177.907C138.89 173.956 136.914 169.016 135.597 163.253C134.28 157.49 133.621 150.739 133.621 143.33C133.621 135.261 134.28 128.016 135.597 121.76C136.914 115.503 139.055 110.234 141.689 105.953C144.489 101.671 147.946 98.3783 152.063 96.2378C156.179 94.0972 161.119 92.9446 166.717 92.9446C187.464 92.6153 197.837 108.752 197.837 141.024ZM183.512 142.012C183.512 129.334 182.03 119.784 179.067 113.362C176.103 107.105 171.822 103.812 166.223 103.812C160.131 103.812 155.521 107.105 152.557 113.527C149.428 119.948 147.946 129.663 147.946 142.671C147.946 154.691 149.428 163.747 152.557 169.675C155.521 175.602 159.966 178.566 165.894 178.566C171.657 178.566 176.103 175.602 179.067 169.51C182.03 163.418 183.512 154.197 183.512 142.012Z" fill="#88B8BD"/>
<path d="M279.507 164.241H265.84V188.775H251.845V164.241H211.833L211.01 159.96C211.504 156.831 212.656 153.373 214.468 149.257C216.279 145.141 218.419 141.024 220.889 136.743C223.359 132.462 226.158 128.016 229.287 123.571C232.415 119.125 235.379 115.009 238.507 111.221C241.636 107.27 244.435 103.812 247.234 100.848C250.033 97.7196 252.503 95.4144 254.644 93.6031H266.005V153.209H279.672V164.241H279.507ZM251.845 153.044V116.49C251.845 115.832 251.845 115.009 251.845 114.185C251.845 113.362 251.845 112.374 252.009 111.551C251.845 111.715 251.515 112.045 251.515 112.374C251.351 112.703 251.186 112.868 251.021 113.197C250.363 113.856 249.21 115.009 248.057 116.49C246.74 117.972 245.423 119.784 243.776 121.759C242.295 123.735 240.648 126.04 238.837 128.51C237.025 130.98 235.379 133.615 233.732 136.414C232.086 139.213 230.604 142.012 229.122 144.811C227.64 147.61 226.323 150.41 225.335 153.209H251.845V153.044Z" fill="#88B8BD"/>
<path d="M116.662 159.301H102.995V183.835H88.9995V159.301H48.8233L48 155.02C48.494 151.892 49.6466 148.434 51.4578 144.317C53.269 140.366 55.4095 136.085 57.8794 131.804C60.3492 127.523 63.1484 123.077 66.2769 118.631C69.4054 114.185 72.3692 110.069 75.4976 106.282C78.6261 102.33 81.4253 98.8723 84.2244 95.9085C87.0236 92.78 89.4935 90.4748 91.634 88.6636H102.995V148.269H116.662V159.301V159.301ZM88.9995 148.105V111.551C88.9995 110.892 88.9995 110.069 88.9995 109.246C88.9995 108.422 88.9995 107.434 89.1641 106.611C88.9995 106.776 88.6702 107.105 88.6702 107.434C88.5055 107.764 88.3408 107.928 88.1762 108.258C87.5176 108.916 86.365 110.069 85.2124 111.551C83.8951 113.033 82.5779 114.844 80.9313 116.82C79.4494 118.796 77.8028 121.101 75.9916 123.571C74.1804 126.041 72.5338 128.675 70.8873 131.474C69.2407 134.273 67.7588 137.073 66.2769 139.872C64.795 142.671 63.4777 145.47 62.4898 148.269H88.9995V148.105Z" fill="#F5F9FC"/>
<path d="M194.051 136.085C194.051 143.824 193.227 150.574 191.746 156.667C190.264 162.759 188.123 167.863 185.324 172.144C182.525 176.426 179.067 179.554 174.951 181.859C170.834 184 166.224 185.152 161.119 185.152C156.015 185.152 151.405 184.164 147.618 182.024C143.666 179.883 140.373 176.919 137.738 172.968C135.104 169.016 133.128 164.076 131.811 158.313C130.493 152.55 129.835 145.799 129.835 138.39C129.835 130.322 130.493 123.077 131.811 116.82C133.128 110.563 135.268 105.294 137.903 101.013C140.702 96.7317 144.16 93.4386 148.276 91.2981C152.393 89.1575 157.332 88.0049 162.931 88.0049C183.513 87.6756 194.051 103.812 194.051 136.085ZM179.561 137.073C179.561 124.394 178.079 114.844 175.115 108.422C172.151 102.165 167.87 98.8723 162.272 98.8723C156.18 98.8723 151.569 102.165 148.606 108.587C145.477 115.009 143.995 124.723 143.995 137.731C143.995 149.751 145.477 158.807 148.606 164.735C151.569 170.663 156.015 173.626 161.943 173.626C167.706 173.626 172.151 170.663 175.115 164.57C178.079 158.478 179.561 149.257 179.561 137.073Z" fill="#F5F9FC"/>
<path d="M275.556 159.301H261.889V183.835H248.058V159.301H208.047L207.223 155.02C207.717 151.892 208.87 148.434 210.681 144.317C212.492 140.366 214.633 136.085 217.103 131.804C219.573 127.523 222.372 123.077 225.5 118.631C228.629 114.185 231.592 110.069 234.721 106.282C237.849 102.33 240.649 98.8723 243.448 95.9085C246.247 92.78 248.717 90.4748 250.857 88.6636H262.219V148.269H275.885V159.301H275.556ZM248.058 148.105V111.551C248.058 110.892 248.058 110.069 248.058 109.246C248.058 108.422 248.058 107.434 248.223 106.611C248.058 106.776 247.729 107.105 247.729 107.434C247.564 107.764 247.399 107.928 247.235 108.258C246.576 108.916 245.424 110.069 244.271 111.551C242.954 113.033 241.636 114.844 239.99 116.82C238.508 118.796 236.861 121.101 235.05 123.571C233.239 126.041 231.592 128.675 229.946 131.474C228.299 134.273 226.817 137.073 225.335 139.872C223.854 142.671 222.536 145.47 221.548 148.269H248.058V148.105Z" fill="#F5F9FC"/>
<path d="M65.6052 209.207L62.0072 221.858H60.2662L57.7128 212.689C57.5967 212.34 57.4806 211.876 57.4806 211.412C57.4806 211.876 57.3646 212.224 57.2485 212.689L54.6951 221.974H52.9541L49.24 209.323H50.8649L53.5344 218.956C53.6505 219.304 53.7665 219.769 53.7665 220.233C53.7665 219.885 53.8826 219.536 53.9987 218.956L56.7843 209.323H58.177L60.8465 219.072C60.9626 219.42 60.9626 219.769 61.0787 220.233C61.0787 219.885 61.1947 219.536 61.3108 219.072L63.8642 209.323H65.6052V209.207Z" fill="#FFFEFD"/>
<path d="M75.2386 221.742H73.8459V216.519C73.8459 214.662 73.1495 213.733 71.7567 213.733C71.0603 213.733 70.48 213.965 70.0157 214.546C69.5514 215.126 69.3193 215.822 69.3193 216.635V221.742H67.9265V208.394H69.3193V214.197C70.0157 213.037 70.9442 212.456 72.221 212.456C74.1941 212.456 75.2386 213.733 75.2386 216.17V221.742Z" fill="#FFFEFD"/>
<path d="M82.2029 221.974C80.9261 221.974 79.7655 221.51 79.0691 220.697C78.2566 219.885 77.9084 218.724 77.9084 217.331C77.9084 215.822 78.3727 214.662 79.1852 213.733C79.9976 212.921 81.1583 212.456 82.5511 212.456C83.9439 212.456 84.9884 212.921 85.6848 213.733C86.3812 214.546 86.8455 215.706 86.8455 217.215C86.8455 218.608 86.4973 219.769 85.6848 220.697C84.6402 221.51 83.5957 221.974 82.2029 221.974ZM82.3189 213.733C81.3904 213.733 80.694 214.081 80.1137 214.662C79.5334 215.242 79.3012 216.171 79.3012 217.215C79.3012 218.26 79.5334 219.072 80.1137 219.769C80.694 220.349 81.3904 220.697 82.3189 220.697C83.2475 220.697 83.9439 220.349 84.5242 219.769C84.9884 219.188 85.2206 218.26 85.2206 217.215C85.2206 216.054 84.9884 215.242 84.5242 214.662C83.9439 214.081 83.2475 213.733 82.3189 213.733Z" fill="#FFFEFD"/>
<path d="M93.2291 221.974C91.9524 221.974 90.7917 221.51 90.0953 220.697C89.2829 219.885 88.9347 218.724 88.9347 217.331C88.9347 215.822 89.399 214.662 90.2114 213.733C91.0239 212.921 92.1845 212.456 93.5773 212.456C94.9701 212.456 96.0147 212.921 96.7111 213.733C97.4075 214.546 97.8717 215.706 97.8717 217.215C97.8717 218.608 97.5235 219.769 96.7111 220.697C95.6665 221.51 94.5058 221.974 93.2291 221.974ZM93.2291 213.733C92.3006 213.733 91.6042 214.081 91.0239 214.662C90.4435 215.242 90.2114 216.171 90.2114 217.215C90.2114 218.26 90.4435 219.072 91.0239 219.769C91.6042 220.349 92.3006 220.697 93.2291 220.697C94.1576 220.697 94.854 220.349 95.4344 219.769C95.8986 219.188 96.1308 218.26 96.1308 217.215C96.1308 216.054 95.8986 215.242 95.4344 214.662C94.9701 214.081 94.2737 213.733 93.2291 213.733Z" fill="#FFFEFD"/>
<path d="M101.934 220.465V225.92H100.541V212.805H101.934V214.429C102.63 213.269 103.675 212.688 105.068 212.688C106.228 212.688 107.157 213.037 107.737 213.849C108.434 214.662 108.666 215.706 108.666 217.099C108.666 218.608 108.318 219.768 107.621 220.697C106.925 221.626 105.88 222.09 104.604 222.09C103.443 221.974 102.514 221.509 101.934 220.465ZM101.818 216.867V218.144C101.818 218.84 102.05 219.536 102.514 220.001C102.979 220.465 103.559 220.813 104.371 220.813C105.3 220.813 105.88 220.465 106.461 219.768C106.925 219.072 107.157 218.144 107.157 216.983C107.157 215.938 106.925 215.242 106.461 214.662C105.996 214.081 105.416 213.849 104.604 213.849C103.791 213.849 103.095 214.197 102.63 214.778C102.166 215.242 101.818 215.938 101.818 216.867Z" fill="#FFFEFD"/>
<path d="M110.871 221.509V220.001C111.683 220.581 112.496 220.813 113.424 220.813C114.701 220.813 115.281 220.349 115.281 219.536C115.281 219.304 115.281 219.072 115.165 218.956C115.049 218.84 114.933 218.608 114.701 218.492C114.469 218.376 114.353 218.26 114.005 218.144C113.773 218.027 113.54 217.911 113.192 217.795C112.844 217.679 112.496 217.447 112.148 217.331C111.799 217.215 111.567 216.983 111.335 216.751C111.103 216.519 110.987 216.286 110.871 216.054C110.755 215.822 110.755 215.474 110.755 215.126C110.755 214.662 110.871 214.313 110.987 213.965C111.219 213.617 111.451 213.385 111.799 213.153C112.148 212.921 112.496 212.805 112.96 212.688C113.424 212.572 113.773 212.572 114.237 212.572C115.049 212.572 115.746 212.688 116.326 212.921V214.429C115.63 213.965 114.933 213.733 114.005 213.733C113.773 213.733 113.54 213.733 113.308 213.849C113.076 213.965 112.96 213.965 112.728 214.081C112.612 214.197 112.496 214.313 112.38 214.429C112.264 214.546 112.264 214.778 112.264 214.894C112.264 215.126 112.264 215.358 112.38 215.474C112.496 215.59 112.612 215.822 112.728 215.938C112.844 216.054 113.076 216.17 113.308 216.286C113.54 216.403 113.773 216.519 114.121 216.635C114.469 216.751 114.933 216.983 115.165 217.099C115.514 217.215 115.746 217.447 115.978 217.679C116.21 217.911 116.326 218.144 116.442 218.376C116.558 218.608 116.674 218.956 116.674 219.304C116.674 219.768 116.558 220.117 116.326 220.465C116.094 220.813 115.862 221.045 115.514 221.277C115.165 221.509 114.817 221.626 114.353 221.742C113.889 221.858 113.424 221.858 112.96 221.858C112.38 221.974 111.567 221.858 110.871 221.509Z" fill="#FFFEFD"/>
<path d="M120.04 221.974C119.808 221.974 119.576 221.858 119.344 221.742C119.112 221.509 119.112 221.277 119.112 221.045C119.112 220.813 119.228 220.581 119.344 220.349C119.576 220.117 119.808 220.001 120.04 220.001C120.272 220.001 120.504 220.117 120.737 220.349C120.969 220.581 120.969 220.813 120.969 221.045C120.969 221.277 120.853 221.509 120.737 221.742C120.504 221.858 120.272 221.974 120.04 221.974Z" fill="#FFFEFD"/>
<path d="M124.334 221.974C124.102 221.974 123.87 221.858 123.638 221.742C123.406 221.509 123.406 221.277 123.406 221.045C123.406 220.813 123.522 220.581 123.638 220.349C123.87 220.117 124.102 220.001 124.334 220.001C124.567 220.001 124.799 220.117 125.031 220.349C125.263 220.581 125.263 220.813 125.263 221.045C125.263 221.277 125.147 221.509 125.031 221.742C124.915 221.858 124.683 221.974 124.334 221.974Z" fill="#FFFEFD"/>
<path d="M128.745 221.974C128.513 221.974 128.281 221.858 128.049 221.742C127.817 221.509 127.817 221.277 127.817 221.045C127.817 220.813 127.933 220.581 128.049 220.349C128.281 220.117 128.513 220.001 128.745 220.001C128.977 220.001 129.209 220.117 129.441 220.349C129.674 220.581 129.674 220.813 129.674 221.045C129.674 221.277 129.558 221.509 129.441 221.742C129.209 221.858 128.977 221.974 128.745 221.974Z" fill="#FFFEFD"/>
<path d="M134.2 216.983V221.742H132.691V209.207H136.173C137.566 209.207 138.61 209.555 139.307 210.135C140.003 210.831 140.467 211.76 140.467 212.921C140.467 214.081 140.003 215.126 139.191 215.822C138.378 216.635 137.217 216.983 135.825 216.983H134.2ZM134.2 210.483V215.706H135.709C136.753 215.706 137.45 215.474 138.03 215.01C138.61 214.546 138.842 213.849 138.842 213.037C138.842 211.412 137.914 210.483 135.941 210.483H134.2Z" fill="#FFFEFD"/>
<path d="M148.94 221.742H147.547V220.349C146.967 221.393 146.038 221.974 144.762 221.974C143.833 221.974 143.137 221.742 142.673 221.277C142.208 220.813 141.86 220.117 141.86 219.42C141.86 217.795 142.905 216.751 144.878 216.519L147.547 216.17C147.547 214.662 146.967 213.849 145.69 213.849C144.646 213.849 143.601 214.197 142.789 215.01V213.501C143.717 212.921 144.646 212.688 145.806 212.688C147.896 212.688 148.94 213.849 148.94 216.054V221.742V221.742ZM147.547 217.215L145.342 217.563C144.646 217.679 144.181 217.795 143.833 218.027C143.485 218.26 143.369 218.724 143.369 219.304C143.369 219.768 143.485 220.117 143.833 220.349C144.181 220.581 144.53 220.813 145.11 220.813C145.806 220.813 146.387 220.581 146.851 220.117C147.315 219.652 147.547 218.956 147.547 218.26V217.215V217.215Z" fill="#FFFEFD"/>
<path d="M159.851 221.045C159.851 224.295 158.226 226.036 155.092 226.036C153.931 226.036 153.003 225.804 152.19 225.456V224.063C153.235 224.643 154.164 224.876 155.092 224.876C157.297 224.876 158.458 223.715 158.458 221.394V220.465C157.762 221.626 156.717 222.206 155.324 222.206C154.164 222.206 153.351 221.858 152.655 221.045C151.958 220.233 151.61 219.188 151.61 217.796C151.61 216.287 151.958 215.01 152.771 214.197C153.467 213.269 154.512 212.805 155.788 212.805C156.949 212.805 157.878 213.269 158.458 214.314V213.037H159.851V221.045ZM158.342 217.679V216.403C158.342 215.706 158.11 215.126 157.646 214.546C157.181 214.081 156.601 213.733 155.788 213.733C154.86 213.733 154.164 214.081 153.699 214.662C153.235 215.358 152.887 216.171 152.887 217.331C152.887 218.376 153.119 219.188 153.583 219.769C154.047 220.349 154.744 220.697 155.556 220.697C156.369 220.697 157.065 220.465 157.529 219.885C158.11 219.304 158.342 218.608 158.342 217.679Z" fill="#FFFEFD"/>
<path d="M170.413 217.679H164.029C164.029 218.724 164.377 219.42 164.841 220.001C165.306 220.581 166.118 220.813 166.931 220.813C167.975 220.813 168.904 220.465 169.716 219.768V221.161C168.904 221.742 167.859 221.974 166.582 221.974C165.306 221.974 164.261 221.509 163.565 220.697C162.868 219.885 162.52 218.724 162.52 217.215C162.52 215.822 162.868 214.662 163.681 213.849C164.493 212.921 165.422 212.572 166.582 212.572C167.743 212.572 168.672 212.921 169.368 213.733C170.064 214.546 170.297 215.59 170.297 216.867V217.679H170.413ZM168.904 216.403C168.904 215.59 168.672 214.894 168.323 214.429C167.975 213.965 167.395 213.733 166.699 213.733C166.002 213.733 165.422 213.965 164.958 214.429C164.493 214.894 164.145 215.59 164.029 216.286H168.904V216.403Z" fill="#FFFEFD"/>
<path d="M188.751 221.742H187.01L180.51 211.644C180.394 211.412 180.162 211.18 180.162 210.831C180.162 211.064 180.278 211.644 180.278 212.572V221.626H178.769V209.207H180.742L187.01 219.072C187.242 219.536 187.474 219.769 187.474 219.885C187.474 219.536 187.358 218.956 187.358 218.028V209.207H188.867V221.742H188.751Z" fill="#FFFEFD"/>
<path d="M196.063 221.974C194.786 221.974 193.625 221.51 192.929 220.697C192.117 219.885 191.768 218.724 191.768 217.331C191.768 215.822 192.233 214.662 193.045 213.733C193.858 212.921 195.018 212.456 196.411 212.456C197.804 212.456 198.848 212.921 199.545 213.733C200.241 214.546 200.705 215.706 200.705 217.215C200.705 218.608 200.357 219.769 199.545 220.697C198.616 221.51 197.456 221.974 196.063 221.974ZM196.179 213.733C195.25 213.733 194.554 214.081 193.974 214.662C193.393 215.242 193.161 216.171 193.161 217.215C193.161 218.26 193.393 219.072 193.974 219.769C194.554 220.349 195.25 220.697 196.179 220.697C197.107 220.697 197.804 220.349 198.384 219.769C198.848 219.188 199.081 218.26 199.081 217.215C199.081 216.054 198.848 215.242 198.384 214.662C197.92 214.081 197.107 213.733 196.179 213.733Z" fill="#FFFEFD"/>
<path d="M207.554 221.742C207.205 221.974 206.741 221.974 206.161 221.974C204.536 221.974 203.839 221.045 203.839 219.304V213.965H202.331V212.689H203.839V210.483L205.232 210.019V212.689H207.554V213.965H205.232V219.072C205.232 219.652 205.348 220.117 205.58 220.349C205.813 220.581 206.161 220.697 206.625 220.697C206.973 220.697 207.321 220.581 207.554 220.349V221.742Z" fill="#FFFEFD"/>
<path d="M221.83 210.483H216.955V214.894H221.482V216.17H216.955V221.742H215.446V209.207H221.83V210.483Z" fill="#FFFEFD"/>
<path d="M228.329 221.974C227.053 221.974 225.892 221.51 225.196 220.697C224.383 219.885 224.035 218.724 224.035 217.331C224.035 215.822 224.499 214.662 225.312 213.733C226.124 212.921 227.285 212.456 228.678 212.456C230.07 212.456 231.115 212.921 231.811 213.733C232.508 214.546 232.972 215.706 232.972 217.215C232.972 218.608 232.624 219.769 231.811 220.697C230.767 221.51 229.606 221.974 228.329 221.974ZM228.329 213.733C227.401 213.733 226.704 214.081 226.124 214.662C225.544 215.242 225.312 216.171 225.312 217.215C225.312 218.26 225.544 219.072 226.124 219.769C226.704 220.349 227.401 220.697 228.329 220.697C229.258 220.697 229.954 220.349 230.535 219.769C230.999 219.188 231.231 218.26 231.231 217.215C231.231 216.054 230.999 215.242 230.535 214.662C230.07 214.081 229.258 213.733 228.329 213.733Z" fill="#FFFEFD"/>
<path d="M242.837 221.742H241.445V220.349C240.864 221.393 239.936 221.974 238.659 221.974C236.57 221.974 235.409 220.697 235.409 218.144V212.805H236.802V217.911C236.802 219.768 237.498 220.813 239.007 220.813C239.704 220.813 240.284 220.581 240.748 220.001C241.212 219.536 241.445 218.84 241.445 217.911V212.688H242.837V221.742Z" fill="#FFFEFD"/>
<path d="M253.631 221.742H252.239V216.635C252.239 214.778 251.542 213.733 250.149 213.733C249.453 213.733 248.873 213.965 248.408 214.546C247.944 215.126 247.712 215.822 247.712 216.635V221.742H246.319V212.689H247.712V214.197C248.408 213.037 249.337 212.456 250.614 212.456C251.542 212.456 252.355 212.805 252.819 213.385C253.283 213.965 253.631 214.894 253.631 216.171V221.742V221.742Z" fill="#FFFEFD"/>
<path d="M264.425 221.742H263.033V220.233C262.336 221.393 261.292 221.974 259.899 221.974C258.738 221.974 257.81 221.626 257.229 220.813C256.533 220.001 256.185 218.956 256.185 217.563C256.185 216.054 256.533 214.894 257.345 213.965C258.042 213.037 259.086 212.572 260.363 212.572C261.64 212.572 262.452 213.037 263.033 214.081V208.51H264.425V221.742V221.742ZM263.033 217.679V216.403C263.033 215.706 262.8 215.01 262.336 214.546C261.872 214.081 261.292 213.733 260.479 213.733C259.551 213.733 258.854 214.081 258.39 214.662C257.926 215.358 257.577 216.17 257.577 217.331C257.577 218.376 257.81 219.188 258.274 219.768C258.738 220.349 259.435 220.697 260.247 220.697C261.059 220.697 261.756 220.465 262.22 219.885C262.8 219.304 263.033 218.608 263.033 217.679Z" fill="#FFFEFD"/>
<path d="M268.372 214.546C268.14 214.546 267.908 214.429 267.676 214.313C267.443 214.081 267.443 213.849 267.443 213.617C267.443 213.385 267.56 213.153 267.676 212.921C267.908 212.688 268.14 212.688 268.372 212.688C268.604 212.688 268.836 212.805 269.068 212.921C269.301 213.153 269.301 213.385 269.301 213.617C269.301 213.849 269.184 214.081 269.068 214.313C268.836 214.429 268.604 214.546 268.372 214.546ZM268.372 221.974C268.14 221.974 267.908 221.858 267.676 221.742C267.443 221.509 267.443 221.277 267.443 221.045C267.443 220.813 267.56 220.581 267.676 220.349C267.908 220.117 268.14 220.001 268.372 220.001C268.604 220.001 268.836 220.117 269.068 220.349C269.301 220.581 269.301 220.813 269.301 221.045C269.301 221.277 269.184 221.509 269.068 221.742C268.836 221.858 268.604 221.974 268.372 221.974Z" fill="#FFFEFD"/>
<path d="M275.916 224.643H274.639C272.782 222.554 271.97 220.001 271.97 216.983C271.97 213.965 272.898 211.296 274.639 209.207H275.916C274.059 211.412 273.131 214.081 273.131 216.983C273.247 219.885 274.175 222.438 275.916 224.643Z" fill="#FFFEFD"/>
<path d="M123.89 249.28C122.381 250.093 120.872 250.557 119.015 250.557C116.926 250.557 115.301 249.861 114.024 248.584C112.748 247.307 112.167 245.45 112.167 243.245C112.167 241.04 112.864 239.183 114.257 237.674C115.649 236.281 117.506 235.469 119.596 235.469C121.22 235.469 122.497 235.701 123.542 236.281V238.138C122.381 237.442 120.988 236.977 119.363 236.977C117.739 236.977 116.462 237.558 115.417 238.602C114.373 239.763 113.908 241.156 113.908 242.897C113.908 244.754 114.373 246.147 115.301 247.191C116.23 248.236 117.622 248.816 119.247 248.816C120.408 248.816 121.337 248.584 122.149 248.12V244.057H119.015V242.549H123.89V249.28Z" fill="#1C2B3F"/>
<path d="M133.64 250.557C131.55 250.557 129.926 249.861 128.765 248.584C127.488 247.191 126.908 245.45 126.908 243.361C126.908 241.04 127.488 239.183 128.765 237.79C130.042 236.397 131.783 235.701 133.872 235.701C135.845 235.701 137.47 236.397 138.747 237.674C140.023 239.067 140.604 240.808 140.604 242.897C140.604 245.218 140.023 247.075 138.747 248.468C137.47 249.861 135.729 250.557 133.64 250.557ZM133.756 237.094C132.247 237.094 130.97 237.674 130.042 238.719C129.113 239.763 128.649 241.272 128.649 243.013C128.649 244.754 129.113 246.263 130.042 247.307C130.97 248.352 132.131 248.932 133.64 248.932C135.265 248.932 136.425 248.468 137.354 247.424C138.282 246.379 138.747 244.986 138.747 243.129C138.747 241.272 138.282 239.763 137.47 238.719C136.541 237.558 135.381 237.094 133.756 237.094Z" fill="#1C2B3F"/>
<path d="M160.915 250.209H159.174V243.709H151.63V250.325H149.889V235.817H151.63V242.201H159.174V235.817H160.915V250.209Z" fill="#1C2B3F"/>
<path d="M171.129 250.557C169.039 250.557 167.415 249.861 166.254 248.584C164.977 247.191 164.397 245.45 164.397 243.361C164.397 241.04 164.977 239.183 166.254 237.79C167.531 236.397 169.272 235.701 171.361 235.701C173.334 235.701 174.959 236.397 176.236 237.674C177.512 239.067 178.093 240.808 178.093 242.897C178.093 245.218 177.512 247.075 176.236 248.468C174.843 249.861 173.218 250.557 171.129 250.557ZM171.245 237.094C169.736 237.094 168.459 237.674 167.531 238.719C166.602 239.763 166.138 241.272 166.138 243.013C166.138 244.754 166.602 246.263 167.531 247.307C168.459 248.352 169.62 248.932 171.129 248.932C172.754 248.932 173.914 248.468 174.843 247.424C175.771 246.379 176.236 244.986 176.236 243.129C176.236 241.272 175.771 239.763 174.959 238.719C174.03 237.558 172.754 237.094 171.245 237.094Z" fill="#1C2B3F"/>
<path d="M196.083 250.209H194.342V240.459C194.342 239.647 194.342 238.718 194.458 237.674C194.342 238.37 194.11 238.835 193.994 239.067L189.003 250.209H188.19L183.2 239.183C183.084 238.835 182.967 238.37 182.735 237.674C182.735 238.254 182.851 239.183 182.851 240.459V250.093H181.226V235.585H183.432L187.842 245.682C188.19 246.495 188.422 247.075 188.539 247.423H188.655C188.887 246.611 189.119 246.031 189.351 245.682L193.878 235.585H195.967V250.209H196.083Z" fill="#1C2B3F"/>
<path d="M208.154 250.209H200.493V235.701H207.806V237.21H202.118V241.968H207.341V243.477H202.118V248.584H208.038V250.209H208.154Z" fill="#1C2B3F"/>
<path d="M246.824 407.984H0V424.182H246.824V407.984Z" fill="#F5F9FC"/>
<path d="M274.207 446.166H271.122C254.538 446.166 241.039 432.667 241.039 416.083C241.039 399.499 254.538 386 271.122 386H274.207V446.166Z" fill="#F5F9FC"/>
<path d="M313.547 402.199H285.006C281.612 402.199 278.835 399.422 278.835 396.028C278.835 392.634 281.612 389.857 285.006 389.857H313.547C316.941 389.857 319.718 392.634 319.718 396.028C319.718 399.422 316.941 402.199 313.547 402.199Z" fill="#F5F9FC"/>
<path d="M313.547 440.767H285.006C281.612 440.767 278.835 437.99 278.835 434.596C278.835 431.202 281.612 428.425 285.006 428.425H313.547C316.941 428.425 319.718 431.202 319.718 434.596C319.718 437.99 316.941 440.767 313.547 440.767Z" fill="#F5F9FC"/>
<path d="M77.0049 406.135L67.2323 413.184L72.8496 415.865L65.3085 418.7L72.8496 421.229L62.3844 425.596H150.569L146.337 421.842L150.569 418.087L146.337 415.865L150.569 411.881L141.489 409.429L150.569 406.135H77.0049Z" fill="#1C2B3F"/>
<path d="M75.4601 402.182L69.9866 396L72.7994 392.755L75.4601 402.182Z" fill="#A1D9DA"/>
<path d="M94.3134 411.304L99.8629 392.755L107.693 397.47L94.3134 411.304Z" fill="#A1D9DA"/>
<path d="M88.2317 422.251L97.3542 437.045L92.7553 440.8L88.2317 422.251Z" fill="#A1D9DA"/>
<path d="M133.844 408.872L118.032 399.227L122.669 393.363L133.844 408.872Z" fill="#A1D9DA"/>
<path d="M114.079 441.615L129.587 424.684L121.326 442.929L114.079 441.615Z" fill="#A1D9DA"/>
<path d="M127.155 415.561L122.039 424.076L119.248 419.432L127.155 415.561Z" fill="#A1D9DA"/>
<path d="M106.953 431.07L99.1787 422.251L109.822 426.085L106.953 431.07Z" fill="#A1D9DA"/>
<path d="M141.561 422.251L139.318 431.374H143.879L141.561 422.251Z" fill="#A1D9DA"/>
<path d="M75.4601 424.076L83.3663 434.698L75.4601 435.327V424.076Z" fill="#A1D9DA"/>
<path d="M80.4177 409.722L85.7989 411.191L80.4177 412.66L78.957 417.994L77.4964 412.66L72.1151 411.191L77.4964 409.722L78.957 404.31L80.4177 409.722Z" fill="#A1D9DA"/>
<path d="M144.001 438.854L147.832 439.927L144.001 440.923L143.005 444.754L141.933 440.923L138.102 439.927L141.933 438.854L143.005 435.023L144.001 438.854Z" fill="#A1D9DA"/>
<path d="M115.721 405.131L119.552 406.135L115.721 407.139L114.649 411L113.653 407.139L109.822 406.135L113.653 405.131L114.649 401.269L115.721 405.131Z" fill="#A1D9DA"/>
</svg>
