<svg width="1440" height="1024" viewBox="0 0 1440 1024" fill="none" xmlns="http://www.w3.org/2000/svg">
<g clip-path="url(#clip0)">
<rect width="1440" height="1024" fill="#EFEFEF"/>
<path d="M1440 -2H0V1024H1440V-2Z" fill="#1C2B3F"/>
<path d="M625.63 297.501H595.761V351.121H565.173V297.501H477.726L475.926 288.145C477.006 281.307 479.525 273.75 483.483 264.754C487.442 256.117 492.12 246.76 497.518 237.404C502.916 228.048 509.034 218.331 515.871 208.615C522.709 198.899 529.186 189.902 536.024 181.625C542.861 172.988 548.979 165.431 555.096 158.954C561.214 152.116 566.612 147.078 571.29 143.12H596.121V273.39H625.99V297.501H625.63ZM565.173 273.031V193.141C565.173 191.701 565.173 189.902 565.173 188.103C565.173 186.303 565.173 184.144 565.532 182.345C565.173 182.705 564.453 183.424 564.453 184.144C564.093 184.864 563.733 185.224 563.373 185.943C561.934 187.383 559.415 189.902 556.896 193.141C554.377 196.38 551.138 200.338 547.539 204.656C544.3 208.975 540.702 214.013 536.743 219.411C532.785 224.809 529.186 230.567 525.588 236.684C521.989 242.802 518.75 248.92 515.511 255.037C512.273 261.155 509.394 267.273 507.234 273.39H565.173V273.031Z" fill="#88B8BD"/>
<path d="M794.766 246.761C794.766 263.674 792.967 278.429 789.728 291.744C786.49 305.059 781.811 316.214 775.694 325.571C769.576 334.927 762.019 341.765 753.022 346.803C744.026 351.481 733.949 354 722.794 354C711.638 354 701.562 351.841 693.285 347.163C684.648 342.484 677.451 336.007 671.693 327.37C665.935 318.733 661.617 307.937 658.738 295.342C655.859 282.747 654.419 267.993 654.419 251.799C654.419 234.165 655.859 218.331 658.738 204.656C661.617 190.982 666.295 179.466 672.053 170.109C678.17 160.753 685.728 153.556 694.724 148.878C703.721 144.199 714.517 141.68 726.752 141.68C772.095 140.961 794.766 176.227 794.766 246.761ZM763.458 248.92C763.458 221.21 760.219 200.338 753.742 186.303C747.264 172.629 737.908 165.431 725.672 165.431C712.357 165.431 702.281 172.629 695.804 186.663C688.966 200.698 685.728 221.93 685.728 250.359C685.728 276.629 688.966 296.422 695.804 309.377C702.281 322.332 711.998 328.81 724.953 328.81C737.548 328.81 747.264 322.332 753.742 309.017C760.219 295.702 763.458 275.55 763.458 248.92Z" fill="#88B8BD"/>
<path d="M973.259 297.501H943.39V351.121H912.801V297.501H825.354L823.555 288.145C824.635 281.307 827.154 273.75 831.112 264.754C835.071 255.757 839.749 246.76 845.147 237.404C850.545 228.048 856.663 218.331 863.5 208.615C870.338 198.899 876.815 189.902 883.653 181.625C890.49 172.988 896.608 165.431 902.725 158.954C908.843 152.116 914.241 147.078 918.919 143.12H943.75V273.39H973.619V297.501H973.259ZM912.801 273.031V193.141C912.801 191.701 912.801 189.902 912.801 188.103C912.801 186.303 912.801 184.144 913.161 182.345C912.801 182.705 912.082 183.424 912.082 184.144C911.722 184.864 911.362 185.224 911.002 185.943C909.563 187.383 907.044 189.902 904.525 193.141C901.646 196.38 898.767 200.338 895.168 204.656C891.929 208.975 888.331 214.013 884.372 219.411C880.414 224.809 876.815 230.567 873.216 236.684C869.618 242.802 866.379 248.92 863.14 255.037C859.901 261.155 857.023 267.273 854.863 273.39H912.801V273.031Z" fill="#88B8BD"/>
<path d="M617.353 286.705H587.485V340.325H556.896V286.705H469.089L467.29 277.349C468.37 270.512 470.889 262.954 474.847 253.958C478.806 245.321 483.484 235.965 488.882 226.608C494.28 217.252 500.398 207.535 507.235 197.819C514.072 188.103 520.55 179.106 527.387 170.829C534.225 162.192 540.342 154.635 546.46 148.158C552.578 141.32 557.976 136.282 562.654 132.324H587.485V262.595H617.353V286.705V286.705ZM556.896 262.235V182.345C556.896 180.905 556.896 179.106 556.896 177.307C556.896 175.507 556.896 173.348 557.256 171.549C556.896 171.909 556.176 172.629 556.176 173.348C555.817 174.068 555.457 174.428 555.097 175.148C553.657 176.587 551.138 179.106 548.619 182.345C545.74 185.584 542.861 189.542 539.263 193.86C536.024 198.179 532.425 203.217 528.467 208.615C524.508 214.013 520.91 219.771 517.311 225.888C513.712 232.006 510.474 238.124 507.235 244.241C503.996 250.359 501.117 256.477 498.958 262.595H556.896V262.235Z" fill="#F5F9FC"/>
<path d="M786.49 235.965C786.49 252.878 784.691 267.633 781.452 280.948C778.213 294.263 773.535 305.418 767.417 314.775C761.299 324.131 753.742 330.969 744.746 336.007C735.749 340.685 725.673 343.204 714.517 343.204C703.361 343.204 693.285 341.045 685.008 336.367C676.372 331.688 669.174 325.211 663.416 316.574C657.659 307.937 653.34 297.142 650.461 284.546C647.582 271.951 646.143 257.197 646.143 241.003C646.143 223.369 647.582 207.535 650.461 193.861C653.34 180.186 658.019 168.67 663.776 159.314C669.894 149.957 677.451 142.76 686.448 138.082C695.444 133.403 706.24 130.884 718.476 130.884C763.459 130.165 786.49 165.431 786.49 235.965ZM754.822 238.124C754.822 210.414 751.583 189.542 745.106 175.507C738.628 161.833 729.272 154.635 717.036 154.635C703.721 154.635 693.645 161.833 687.168 175.867C680.33 189.902 677.091 211.134 677.091 239.563C677.091 265.833 680.33 285.626 687.168 298.581C693.645 311.536 703.361 318.014 716.317 318.014C728.912 318.014 738.628 311.536 745.106 298.221C751.583 284.906 754.822 264.754 754.822 238.124Z" fill="#F5F9FC"/>
<path d="M964.623 286.705H934.754V340.325H904.526V286.705H817.079L815.279 277.349C816.359 270.512 818.878 262.954 822.836 253.958C826.795 245.321 831.473 235.965 836.871 226.608C842.269 217.252 848.387 207.535 855.224 197.819C862.062 188.103 868.539 179.106 875.377 170.829C882.214 162.192 888.332 154.635 894.449 148.158C900.567 141.32 905.965 136.282 910.643 132.324H935.474V262.595H965.343V286.705H964.623ZM904.526 262.235V182.345C904.526 180.905 904.526 179.106 904.526 177.307C904.526 175.507 904.526 173.348 904.885 171.549C904.526 171.909 903.806 172.629 903.806 173.348C903.446 174.068 903.086 174.428 902.726 175.148C901.287 176.587 898.768 179.106 896.249 182.345C893.37 185.584 890.491 189.542 886.892 193.86C883.653 198.179 880.055 203.217 876.096 208.615C872.138 214.013 868.539 219.771 864.94 225.888C861.342 232.006 858.103 238.124 854.864 244.241C851.626 250.359 848.747 256.477 846.587 262.595H904.526V262.235Z" fill="#F5F9FC"/>
<path d="M505.767 395.776L497.903 423.425H494.098L488.518 403.386C488.264 402.625 488.01 401.61 488.01 400.595C488.01 401.61 487.757 402.371 487.503 403.386L481.922 423.679H478.117L470 396.029H473.551L479.386 417.084C479.639 417.845 479.893 418.859 479.893 419.874C479.893 419.113 480.147 418.352 480.4 417.084L486.488 396.029H489.532L495.367 417.337C495.62 418.098 495.62 418.859 495.874 419.874C495.874 419.113 496.128 418.352 496.381 417.337L501.962 396.029H505.767V395.776Z" fill="#FFFEFD"/>
<path d="M526.821 423.172H523.777V411.757C523.777 407.698 522.255 405.669 519.211 405.669C517.689 405.669 516.421 406.176 515.406 407.444C514.392 408.713 513.884 410.235 513.884 412.01V423.172H510.84V394H513.884V406.683C515.406 404.147 517.436 402.878 520.226 402.878C524.538 402.878 526.821 405.669 526.821 410.996V423.172Z" fill="#FFFEFD"/>
<path d="M542.042 423.679C539.252 423.679 536.715 422.664 535.193 420.889C533.417 419.113 532.656 416.576 532.656 413.532C532.656 410.235 533.671 407.698 535.447 405.669C537.222 403.893 539.759 402.878 542.803 402.878C545.847 402.878 548.13 403.893 549.652 405.669C551.174 407.444 552.189 409.981 552.189 413.279C552.189 416.323 551.428 418.859 549.652 420.889C547.369 422.664 545.086 423.679 542.042 423.679ZM542.296 405.669C540.266 405.669 538.744 406.43 537.476 407.698C536.208 408.966 535.7 410.996 535.7 413.279C535.7 415.562 536.208 417.337 537.476 418.859C538.744 420.128 540.266 420.889 542.296 420.889C544.325 420.889 545.847 420.128 547.115 418.859C548.13 417.591 548.637 415.562 548.637 413.279C548.637 410.742 548.13 408.966 547.115 407.698C545.847 406.43 544.325 405.669 542.296 405.669Z" fill="#FFFEFD"/>
<path d="M566.14 423.679C563.35 423.679 560.813 422.664 559.291 420.889C557.515 419.113 556.754 416.576 556.754 413.532C556.754 410.235 557.769 407.698 559.545 405.669C561.32 403.893 563.857 402.878 566.901 402.878C569.945 402.878 572.228 403.893 573.75 405.669C575.272 407.444 576.287 409.981 576.287 413.279C576.287 416.323 575.526 418.859 573.75 420.889C571.467 422.664 568.93 423.679 566.14 423.679ZM566.14 405.669C564.111 405.669 562.589 406.43 561.32 407.698C560.052 408.966 559.545 410.996 559.545 413.279C559.545 415.562 560.052 417.337 561.32 418.859C562.589 420.128 564.111 420.889 566.14 420.889C568.169 420.889 569.691 420.128 570.96 418.859C571.974 417.591 572.482 415.562 572.482 413.279C572.482 410.742 571.974 408.966 570.96 407.698C569.945 406.43 568.423 405.669 566.14 405.669Z" fill="#FFFEFD"/>
<path d="M585.165 420.381V432.304H582.121V403.639H585.165V407.191C586.687 404.654 588.97 403.386 592.014 403.386C594.551 403.386 596.58 404.147 597.848 405.922C599.37 407.698 599.878 409.981 599.878 413.025C599.878 416.323 599.117 418.859 597.595 420.889C596.073 422.918 593.79 423.933 590.999 423.933C588.463 423.679 586.433 422.664 585.165 420.381ZM584.911 412.518V415.308C584.911 416.83 585.419 418.352 586.433 419.367C587.448 420.381 588.716 421.142 590.492 421.142C592.521 421.142 593.79 420.381 595.058 418.859C596.073 417.337 596.58 415.308 596.58 412.771C596.58 410.488 596.073 408.966 595.058 407.698C594.043 406.43 592.775 405.922 590.999 405.922C589.224 405.922 587.702 406.683 586.687 407.952C585.672 408.966 584.911 410.488 584.911 412.518Z" fill="#FFFEFD"/>
<path d="M604.697 422.664V419.367C606.473 420.635 608.248 421.142 610.278 421.142C613.068 421.142 614.336 420.128 614.336 418.352C614.336 417.845 614.336 417.337 614.083 417.084C613.829 416.83 613.575 416.323 613.068 416.069C612.561 415.815 612.307 415.562 611.546 415.308C611.039 415.054 610.531 414.801 609.77 414.547C609.009 414.293 608.248 413.786 607.487 413.532C606.726 413.279 606.219 412.771 605.712 412.264C605.204 411.757 604.951 411.249 604.697 410.742C604.443 410.235 604.443 409.474 604.443 408.713C604.443 407.698 604.697 406.937 604.951 406.176C605.458 405.415 605.965 404.908 606.726 404.4C607.487 403.893 608.248 403.639 609.263 403.386C610.278 403.132 611.039 403.132 612.053 403.132C613.829 403.132 615.351 403.386 616.619 403.893V407.191C615.097 406.176 613.575 405.669 611.546 405.669C611.039 405.669 610.531 405.669 610.024 405.922C609.517 406.176 609.263 406.176 608.756 406.43C608.502 406.683 608.248 406.937 607.995 407.191C607.741 407.444 607.741 407.952 607.741 408.205C607.741 408.713 607.741 409.22 607.995 409.474C608.248 409.727 608.502 410.235 608.756 410.488C609.009 410.742 609.517 410.996 610.024 411.249C610.531 411.503 611.039 411.757 611.8 412.01C612.561 412.264 613.575 412.771 614.083 413.025C614.844 413.279 615.351 413.786 615.858 414.293C616.366 414.801 616.619 415.308 616.873 415.815C617.127 416.323 617.38 417.084 617.38 417.845C617.38 418.859 617.127 419.62 616.619 420.381C616.112 421.142 615.605 421.65 614.844 422.157C614.083 422.664 613.322 422.918 612.307 423.172C611.292 423.425 610.278 423.425 609.263 423.425C607.995 423.679 606.219 423.425 604.697 422.664Z" fill="#FFFEFD"/>
<path d="M624.737 423.679C624.23 423.679 623.722 423.425 623.215 423.172C622.708 422.664 622.708 422.157 622.708 421.65C622.708 421.142 622.961 420.635 623.215 420.128C623.722 419.62 624.23 419.367 624.737 419.367C625.244 419.367 625.752 419.62 626.259 420.128C626.766 420.635 626.766 421.142 626.766 421.65C626.766 422.157 626.512 422.664 626.259 423.172C625.752 423.425 625.244 423.679 624.737 423.679Z" fill="#FFFEFD"/>
<path d="M634.122 423.679C633.615 423.679 633.107 423.425 632.6 423.172C632.093 422.664 632.093 422.157 632.093 421.65C632.093 421.142 632.346 420.635 632.6 420.128C633.107 419.62 633.615 419.367 634.122 419.367C634.629 419.367 635.137 419.62 635.644 420.128C636.151 420.635 636.151 421.142 636.151 421.65C636.151 422.157 635.898 422.664 635.644 423.172C635.39 423.425 634.883 423.679 634.122 423.679Z" fill="#FFFEFD"/>
<path d="M643.762 423.679C643.254 423.679 642.747 423.425 642.24 423.172C641.732 422.664 641.732 422.157 641.732 421.65C641.732 421.142 641.986 420.635 642.24 420.128C642.747 419.62 643.254 419.367 643.762 419.367C644.269 419.367 644.776 419.62 645.284 420.128C645.791 420.635 645.791 421.142 645.791 421.65C645.791 422.157 645.537 422.664 645.284 423.172C644.776 423.425 644.269 423.679 643.762 423.679Z" fill="#FFFEFD"/>
<path d="M655.683 412.771V423.172H652.386V395.776H659.996C663.04 395.776 665.323 396.537 666.845 397.805C668.367 399.327 669.381 401.356 669.381 403.893C669.381 406.43 668.367 408.713 666.591 410.235C664.815 412.01 662.279 412.771 659.235 412.771H655.683ZM655.683 398.566V409.981H658.981C661.264 409.981 662.786 409.474 664.054 408.459C665.323 407.444 665.83 405.922 665.83 404.147C665.83 400.595 663.801 398.566 659.488 398.566H655.683Z" fill="#FFFEFD"/>
<path d="M687.899 423.172H684.855V420.128C683.587 422.411 681.557 423.679 678.767 423.679C676.738 423.679 675.216 423.172 674.201 422.157C673.186 421.142 672.425 419.62 672.425 418.098C672.425 414.547 674.708 412.264 679.021 411.757L684.855 410.996C684.855 407.698 683.587 405.922 680.796 405.922C678.513 405.922 676.23 406.683 674.455 408.459V405.161C676.484 403.893 678.513 403.386 681.05 403.386C685.616 403.386 687.899 405.922 687.899 410.742V423.172V423.172ZM684.855 413.279L680.035 414.04C678.513 414.293 677.499 414.547 676.738 415.054C675.977 415.562 675.723 416.576 675.723 417.845C675.723 418.859 675.977 419.62 676.738 420.128C677.499 420.635 678.26 421.142 679.528 421.142C681.05 421.142 682.318 420.635 683.333 419.62C684.348 418.606 684.855 417.084 684.855 415.562V413.279V413.279Z" fill="#FFFEFD"/>
<path d="M711.745 421.65C711.745 428.752 708.193 432.557 701.344 432.557C698.808 432.557 696.778 432.05 695.003 431.289V428.245C697.286 429.514 699.315 430.021 701.344 430.021C706.164 430.021 708.701 427.484 708.701 422.411V420.382C707.179 422.918 704.896 424.186 701.852 424.186C699.315 424.186 697.539 423.425 696.017 421.65C694.495 419.874 693.734 417.591 693.734 414.547C693.734 411.25 694.495 408.459 696.271 406.684C697.793 404.654 700.076 403.64 702.866 403.64C705.403 403.64 707.432 404.654 708.701 406.937V404.147H711.745V421.65ZM708.447 414.294V411.503C708.447 409.981 707.94 408.713 706.925 407.445C705.91 406.43 704.642 405.669 702.866 405.669C700.837 405.669 699.315 406.43 698.3 407.698C697.286 409.22 696.525 410.996 696.525 413.533C696.525 415.816 697.032 417.591 698.047 418.86C699.061 420.128 700.583 420.889 702.359 420.889C704.135 420.889 705.657 420.382 706.671 419.113C707.94 417.845 708.447 416.323 708.447 414.294Z" fill="#FFFEFD"/>
<path d="M734.828 414.293H720.876C720.876 416.576 721.637 418.098 722.652 419.367C723.667 420.635 725.442 421.142 727.218 421.142C729.501 421.142 731.53 420.381 733.306 418.859V421.903C731.53 423.172 729.247 423.679 726.457 423.679C723.667 423.679 721.384 422.664 719.862 420.889C718.34 419.113 717.579 416.576 717.579 413.279C717.579 410.235 718.34 407.698 720.115 405.922C721.891 403.893 723.92 403.132 726.457 403.132C728.994 403.132 731.023 403.893 732.545 405.669C734.067 407.444 734.574 409.727 734.574 412.518V414.293H734.828ZM731.53 411.503C731.53 409.727 731.023 408.205 730.262 407.191C729.501 406.176 728.233 405.669 726.711 405.669C725.189 405.669 723.92 406.176 722.906 407.191C721.891 408.205 721.13 409.727 720.876 411.249H731.53V411.503Z" fill="#FFFEFD"/>
<path d="M774.907 423.172H771.102L756.897 401.103C756.643 400.595 756.136 400.088 756.136 399.327C756.136 399.834 756.39 401.103 756.39 403.132V422.918H753.092V395.776H757.404L771.102 417.337C771.609 418.352 772.117 418.859 772.117 419.113C772.117 418.352 771.863 417.084 771.863 415.054V395.776H775.161V423.172H774.907Z" fill="#FFFEFD"/>
<path d="M790.888 423.679C788.097 423.679 785.561 422.664 784.039 420.889C782.263 419.113 781.502 416.576 781.502 413.532C781.502 410.235 782.517 407.698 784.292 405.669C786.068 403.893 788.605 402.878 791.649 402.878C794.693 402.878 796.976 403.893 798.498 405.669C800.02 407.444 801.034 409.981 801.034 413.279C801.034 416.323 800.273 418.859 798.498 420.889C796.468 422.664 793.932 423.679 790.888 423.679ZM791.141 405.669C789.112 405.669 787.59 406.43 786.322 407.698C785.053 408.966 784.546 410.996 784.546 413.279C784.546 415.562 785.053 417.337 786.322 418.859C787.59 420.128 789.112 420.889 791.141 420.889C793.171 420.889 794.693 420.128 795.961 418.859C796.976 417.591 797.483 415.562 797.483 413.279C797.483 410.742 796.976 408.966 795.961 407.698C794.946 406.43 793.171 405.669 791.141 405.669Z" fill="#FFFEFD"/>
<path d="M816.001 423.172C815.24 423.679 814.225 423.679 812.957 423.679C809.406 423.679 807.884 421.65 807.884 417.845V406.176H804.586V403.386H807.884V398.566L810.928 397.552V403.386H816.001V406.176H810.928V417.337C810.928 418.606 811.181 419.62 811.689 420.128C812.196 420.635 812.957 420.889 813.972 420.889C814.733 420.889 815.494 420.635 816.001 420.128V423.172Z" fill="#FFFEFD"/>
<path d="M847.203 398.566H836.549V408.205H846.442V410.996H836.549V423.172H833.251V395.776H847.203V398.566Z" fill="#FFFEFD"/>
<path d="M861.408 423.679C858.617 423.679 856.081 422.664 854.559 420.889C852.783 419.113 852.022 416.576 852.022 413.532C852.022 410.235 853.037 407.698 854.812 405.669C856.588 403.893 859.125 402.878 862.169 402.878C865.213 402.878 867.496 403.893 869.018 405.669C870.54 407.444 871.554 409.981 871.554 413.279C871.554 416.323 870.793 418.859 869.018 420.889C866.735 422.664 864.198 423.679 861.408 423.679ZM861.408 405.669C859.378 405.669 857.856 406.43 856.588 407.698C855.32 408.966 854.812 410.996 854.812 413.279C854.812 415.562 855.32 417.337 856.588 418.859C857.856 420.128 859.378 420.889 861.408 420.889C863.437 420.889 864.959 420.128 866.227 418.859C867.242 417.591 867.749 415.562 867.749 413.279C867.749 410.742 867.242 408.966 866.227 407.698C865.213 406.43 863.437 405.669 861.408 405.669Z" fill="#FFFEFD"/>
<path d="M893.115 423.172H890.071V420.128C888.803 422.411 886.774 423.679 883.983 423.679C879.417 423.679 876.881 420.889 876.881 415.308V403.639H879.925V414.801C879.925 418.859 881.447 421.142 884.744 421.142C886.266 421.142 887.535 420.635 888.549 419.367C889.564 418.352 890.071 416.83 890.071 414.801V403.386H893.115V423.172Z" fill="#FFFEFD"/>
<path d="M916.706 423.172H913.662V412.01C913.662 407.952 912.14 405.669 909.096 405.669C907.574 405.669 906.306 406.176 905.291 407.444C904.276 408.713 903.769 410.235 903.769 412.01V423.172H900.725V403.386H903.769V406.683C905.291 404.147 907.32 402.878 910.111 402.878C912.14 402.878 913.916 403.639 914.93 404.908C915.945 406.176 916.706 408.205 916.706 410.996V423.172V423.172Z" fill="#FFFEFD"/>
<path d="M940.297 423.172H937.253V419.874C935.731 422.411 933.448 423.679 930.404 423.679C927.867 423.679 925.838 422.918 924.57 421.142C923.048 419.367 922.287 417.084 922.287 414.04C922.287 410.742 923.048 408.205 924.823 406.176C926.345 404.147 928.628 403.132 931.419 403.132C934.209 403.132 935.985 404.147 937.253 406.43V394.254H940.297V423.172V423.172ZM937.253 414.293V411.503C937.253 409.981 936.746 408.459 935.731 407.444C934.716 406.43 933.448 405.669 931.672 405.669C929.643 405.669 928.121 406.43 927.106 407.698C926.092 409.22 925.331 410.996 925.331 413.532C925.331 415.815 925.838 417.591 926.853 418.859C927.867 420.128 929.389 420.889 931.165 420.889C932.941 420.889 934.463 420.381 935.477 419.113C936.746 417.845 937.253 416.323 937.253 414.293Z" fill="#FFFEFD"/>
<path d="M948.922 407.444C948.415 407.444 947.908 407.191 947.4 406.937C946.893 406.43 946.893 405.922 946.893 405.415C946.893 404.908 947.147 404.4 947.4 403.893C947.908 403.386 948.415 403.386 948.922 403.386C949.43 403.386 949.937 403.639 950.444 403.893C950.952 404.4 950.952 404.908 950.952 405.415C950.952 405.922 950.698 406.43 950.444 406.937C949.937 407.191 949.43 407.444 948.922 407.444ZM948.922 423.679C948.415 423.679 947.908 423.425 947.4 423.172C946.893 422.664 946.893 422.157 946.893 421.65C946.893 421.142 947.147 420.635 947.4 420.128C947.908 419.62 948.415 419.367 948.922 419.367C949.43 419.367 949.937 419.62 950.444 420.128C950.952 420.635 950.952 421.142 950.952 421.65C950.952 422.157 950.698 422.664 950.444 423.172C949.937 423.425 949.43 423.679 948.922 423.679Z" fill="#FFFEFD"/>
<path d="M965.41 429.513H962.62C958.561 424.947 956.786 419.367 956.786 412.771C956.786 406.176 958.815 400.342 962.62 395.776H965.41C961.352 400.595 959.322 406.43 959.322 412.771C959.576 419.113 961.605 424.694 965.41 429.513Z" fill="#FFFEFD"/>
<path d="M633.151 483.359C629.853 485.135 626.555 486.149 622.497 486.149C617.931 486.149 614.379 484.627 611.589 481.837C608.799 479.047 607.53 474.988 607.53 470.168C607.53 465.349 609.052 461.29 612.096 457.992C615.14 454.948 619.199 453.173 623.765 453.173C627.316 453.173 630.107 453.68 632.39 454.948V459.007C629.853 457.485 626.809 456.47 623.258 456.47C619.706 456.47 616.916 457.739 614.633 460.022C612.35 462.558 611.335 465.602 611.335 469.407C611.335 473.466 612.35 476.51 614.379 478.793C616.409 481.076 619.453 482.344 623.004 482.344C625.541 482.344 627.57 481.837 629.346 480.822V471.944H622.497V468.646H633.151V483.359Z" fill="#1C2B3F"/>
<path d="M654.459 486.149C649.893 486.149 646.342 484.627 643.805 481.837C641.015 478.793 639.747 474.988 639.747 470.422C639.747 465.349 641.015 461.29 643.805 458.246C646.596 455.202 650.401 453.68 654.967 453.68C659.279 453.68 662.83 455.202 665.621 457.992C668.411 461.036 669.679 464.841 669.679 469.407C669.679 474.481 668.411 478.539 665.621 481.583C662.83 484.627 659.025 486.149 654.459 486.149ZM654.713 456.724C651.415 456.724 648.625 457.992 646.596 460.275C644.566 462.558 643.552 465.856 643.552 469.661C643.552 473.466 644.566 476.764 646.596 479.047C648.625 481.33 651.162 482.598 654.459 482.598C658.011 482.598 660.547 481.583 662.577 479.3C664.606 477.017 665.621 473.973 665.621 469.915C665.621 465.856 664.606 462.558 662.83 460.275C660.801 457.739 658.264 456.724 654.713 456.724Z" fill="#1C2B3F"/>
<path d="M714.07 485.388H710.265V471.183H693.777V485.642H689.972V453.934H693.777V467.885H710.265V453.934H714.07V485.388Z" fill="#1C2B3F"/>
<path d="M736.393 486.149C731.827 486.149 728.276 484.627 725.739 481.837C722.949 478.793 721.68 474.988 721.68 470.422C721.68 465.349 722.949 461.29 725.739 458.246C728.529 455.202 732.334 453.68 736.9 453.68C741.212 453.68 744.764 455.202 747.554 457.992C750.345 461.036 751.613 464.841 751.613 469.407C751.613 474.481 750.345 478.539 747.554 481.583C744.51 484.627 740.959 486.149 736.393 486.149ZM736.646 456.724C733.349 456.724 730.559 457.992 728.529 460.275C726.5 462.558 725.485 465.856 725.485 469.661C725.485 473.466 726.5 476.764 728.529 479.047C730.559 481.33 733.095 482.598 736.393 482.598C739.944 482.598 742.481 481.583 744.51 479.3C746.539 477.017 747.554 473.973 747.554 469.915C747.554 465.856 746.539 462.558 744.764 460.275C742.735 457.739 739.944 456.724 736.646 456.724Z" fill="#1C2B3F"/>
<path d="M790.931 485.388H787.126V464.08C787.126 462.305 787.126 460.275 787.38 457.992C787.126 459.514 786.619 460.529 786.365 461.036L775.458 485.388H773.682L762.774 461.29C762.521 460.529 762.267 459.514 761.76 457.992C761.76 459.261 762.013 461.29 762.013 464.08V485.135H758.462V453.426H763.282L772.921 475.495C773.682 477.271 774.189 478.539 774.443 479.3H774.697C775.204 477.525 775.711 476.256 776.219 475.495L786.112 453.426H790.678V485.388H790.931Z" fill="#1C2B3F"/>
<path d="M817.313 485.388H800.571V453.68H816.552V456.978H804.122V467.378H815.537V470.676H804.122V481.837H817.059V485.388H817.313Z" fill="#1C2B3F"/>
<path d="M1163.57 746.081H0V799.351H1163.57V746.081Z" fill="#F5F9FC"/>
<path d="M1253.62 871.646H1243.47C1188.93 871.646 1144.54 827.254 1144.54 772.716C1144.54 718.178 1188.93 673.786 1243.47 673.786H1253.62V871.646Z" fill="#F5F9FC"/>
<path d="M1382.99 727.056H1289.13C1277.97 727.056 1268.84 717.924 1268.84 706.763C1268.84 695.601 1277.97 686.469 1289.13 686.469H1382.99C1394.15 686.469 1403.28 695.601 1403.28 706.763C1403.28 717.924 1394.15 727.056 1382.99 727.056Z" fill="#F5F9FC"/>
<path d="M1382.99 853.889H1289.13C1277.97 853.889 1268.84 844.757 1268.84 833.596C1268.84 822.434 1277.97 813.302 1289.13 813.302H1382.99C1394.15 813.302 1403.28 822.434 1403.28 833.596C1403.28 844.757 1394.15 853.889 1382.99 853.889Z" fill="#F5F9FC"/>
<path d="M605.11 740L572.972 763.181L591.445 772L566.645 781.323L591.445 789.638L557.029 804H847.029L833.111 791.654L847.029 779.307L833.111 772L847.029 758.898L817.169 750.835L847.029 740H605.11Z" fill="#1C2B3F"/>
<path d="M600.029 727L582.029 706.672L591.279 696L600.029 727Z" fill="#A1D9DA"/>
<path d="M662.029 757L680.279 696L706.029 711.504L662.029 757Z" fill="#A1D9DA"/>
<path d="M642.029 793L672.029 841.649L656.905 854L642.029 793Z" fill="#A1D9DA"/>
<path d="M792.029 749L740.029 717.284L755.279 698L792.029 749Z" fill="#A1D9DA"/>
<path d="M727.029 856.678L778.029 801L750.863 861L727.029 856.678Z" fill="#A1D9DA"/>
<path d="M770.029 771L753.206 799L744.029 783.727L770.029 771Z" fill="#A1D9DA"/>
<path d="M703.597 822L678.029 793L713.029 805.609L703.597 822Z" fill="#A1D9DA"/>
<path d="M817.406 793L810.029 823H825.029L817.406 793Z" fill="#A1D9DA"/>
<path d="M600.029 799L626.029 833.93L600.029 836V799Z" fill="#A1D9DA"/>
<path d="M616.333 751.797L634.029 756.627L616.333 761.458L611.529 779L606.726 761.458L589.029 756.627L606.726 751.797L611.529 734L616.333 751.797Z" fill="#A1D9DA"/>
<path d="M825.431 847.598L838.029 851.126L825.431 854.402L822.155 867L818.628 854.402L806.029 851.126L818.628 847.598L822.155 835L825.431 847.598Z" fill="#A1D9DA"/>
<path d="M732.431 736.698L745.029 740L732.431 743.302L728.903 756L725.628 743.302L713.029 740L725.628 736.698L728.903 724L732.431 736.698Z" fill="#A1D9DA"/>
</g>
<defs>
<clipPath id="clip0">
<rect width="1440" height="1024" fill="white"/>
</clipPath>
</defs>
</svg>
