<svg width="320" height="564" viewBox="0 0 320 564" fill="none" xmlns="http://www.w3.org/2000/svg">
<rect width="320" height="564" fill="white"/>
<path d="M320 0H0V564H320V0Z" fill="#1C2B3F"/>
<path d="M110.15 132.36C107.15 132.36 104.81 131.53 103.13 129.87C101.47 128.21 100.64 125.84 100.64 122.76V111H105.5V122.58C105.5 126.34 107.06 128.22 110.18 128.22C111.7 128.22 112.86 127.77 113.66 126.87C114.46 125.95 114.86 124.52 114.86 122.58V111H119.66V122.76C119.66 125.84 118.82 128.21 117.14 129.87C115.48 131.53 113.15 132.36 110.15 132.36ZM143.723 111V132H139.733L129.263 119.25V132H124.463V111H128.483L138.923 123.75V111H143.723ZM148.691 111H158.231C160.511 111 162.521 111.44 164.261 112.32C166.021 113.18 167.381 114.4 168.341 115.98C169.321 117.56 169.811 119.4 169.811 121.5C169.811 123.6 169.321 125.44 168.341 127.02C167.381 128.6 166.021 129.83 164.261 130.71C162.521 131.57 160.511 132 158.231 132H148.691V111ZM157.991 128.01C160.091 128.01 161.761 127.43 163.001 126.27C164.261 125.09 164.891 123.5 164.891 121.5C164.891 119.5 164.261 117.92 163.001 116.76C161.761 115.58 160.091 114.99 157.991 114.99H153.551V128.01H157.991ZM189.736 128.1V132H173.476V111H189.346V114.9H178.306V119.46H188.056V123.24H178.306V128.1H189.736ZM206.983 132L202.933 126.15H202.693H198.463V132H193.603V111H202.693C204.553 111 206.163 111.31 207.523 111.93C208.903 112.55 209.963 113.43 210.703 114.57C211.443 115.71 211.813 117.06 211.813 118.62C211.813 120.18 211.433 121.53 210.673 122.67C209.933 123.79 208.873 124.65 207.493 125.25L212.203 132H206.983ZM206.893 118.62C206.893 117.44 206.513 116.54 205.753 115.92C204.993 115.28 203.883 114.96 202.423 114.96H198.463V122.28H202.423C203.883 122.28 204.993 121.96 205.753 121.32C206.513 120.68 206.893 119.78 206.893 118.62ZM45.582 169.36C43.442 169.36 41.502 168.9 39.762 167.98C38.042 167.04 36.682 165.75 35.682 164.11C34.702 162.45 34.212 160.58 34.212 158.5C34.212 156.42 34.702 154.56 35.682 152.92C36.682 151.26 38.042 149.97 39.762 149.05C41.502 148.11 43.452 147.64 45.612 147.64C47.432 147.64 49.072 147.96 50.532 148.6C52.012 149.24 53.252 150.16 54.252 151.36L51.132 154.24C49.712 152.6 47.952 151.78 45.852 151.78C44.552 151.78 43.392 152.07 42.372 152.65C41.352 153.21 40.552 154 39.972 155.02C39.412 156.04 39.132 157.2 39.132 158.5C39.132 159.8 39.412 160.96 39.972 161.98C40.552 163 41.352 163.8 42.372 164.38C43.392 164.94 44.552 165.22 45.852 165.22C47.952 165.22 49.712 164.39 51.132 162.73L54.252 165.61C53.252 166.83 52.012 167.76 50.532 168.4C49.052 169.04 47.402 169.36 45.582 169.36ZM67.2645 169.36C65.0845 169.36 63.1145 168.89 61.3545 167.95C59.6145 167.01 58.2445 165.72 57.2445 164.08C56.2645 162.42 55.7745 160.56 55.7745 158.5C55.7745 156.44 56.2645 154.59 57.2445 152.95C58.2445 151.29 59.6145 149.99 61.3545 149.05C63.1145 148.11 65.0845 147.64 67.2645 147.64C69.4445 147.64 71.4045 148.11 73.1445 149.05C74.8845 149.99 76.2545 151.29 77.2545 152.95C78.2545 154.59 78.7545 156.44 78.7545 158.5C78.7545 160.56 78.2545 162.42 77.2545 164.08C76.2545 165.72 74.8845 167.01 73.1445 167.95C71.4045 168.89 69.4445 169.36 67.2645 169.36ZM67.2645 165.22C68.5045 165.22 69.6245 164.94 70.6245 164.38C71.6245 163.8 72.4045 163 72.9645 161.98C73.5445 160.96 73.8345 159.8 73.8345 158.5C73.8345 157.2 73.5445 156.04 72.9645 155.02C72.4045 154 71.6245 153.21 70.6245 152.65C69.6245 152.07 68.5045 151.78 67.2645 151.78C66.0245 151.78 64.9045 152.07 63.9045 152.65C62.9045 153.21 62.1145 154 61.5345 155.02C60.9745 156.04 60.6945 157.2 60.6945 158.5C60.6945 159.8 60.9745 160.96 61.5345 161.98C62.1145 163 62.9045 163.8 63.9045 164.38C64.9045 164.94 66.0245 165.22 67.2645 165.22ZM101.667 148V169H97.677L87.207 156.25V169H82.407V148H86.427L96.867 160.75V148H101.667ZM113.536 169.36C111.876 169.36 110.266 169.14 108.706 168.7C107.166 168.24 105.926 167.65 104.986 166.93L106.636 163.27C107.536 163.93 108.606 164.46 109.846 164.86C111.086 165.26 112.326 165.46 113.566 165.46C114.946 165.46 115.966 165.26 116.626 164.86C117.286 164.44 117.616 163.89 117.616 163.21C117.616 162.71 117.416 162.3 117.016 161.98C116.636 161.64 116.136 161.37 115.516 161.17C114.916 160.97 114.096 160.75 113.056 160.51C111.456 160.13 110.146 159.75 109.126 159.37C108.106 158.99 107.226 158.38 106.486 157.54C105.766 156.7 105.406 155.58 105.406 154.18C105.406 152.96 105.736 151.86 106.396 150.88C107.056 149.88 108.046 149.09 109.366 148.51C110.706 147.93 112.336 147.64 114.256 147.64C115.596 147.64 116.906 147.8 118.186 148.12C119.466 148.44 120.586 148.9 121.546 149.5L120.046 153.19C118.106 152.09 116.166 151.54 114.226 151.54C112.866 151.54 111.856 151.76 111.196 152.2C110.556 152.64 110.236 153.22 110.236 153.94C110.236 154.66 110.606 155.2 111.346 155.56C112.106 155.9 113.256 156.24 114.796 156.58C116.396 156.96 117.706 157.34 118.726 157.72C119.746 158.1 120.616 158.7 121.336 159.52C122.076 160.34 122.446 161.45 122.446 162.85C122.446 164.05 122.106 165.15 121.426 166.15C120.766 167.13 119.766 167.91 118.426 168.49C117.086 169.07 115.456 169.36 113.536 169.36ZM129.823 151.96H123.103V148H141.403V151.96H134.683V169H129.823V151.96ZM157.398 169L153.348 163.15H153.108H148.878V169H144.018V148H153.108C154.968 148 156.578 148.31 157.938 148.93C159.318 149.55 160.378 150.43 161.118 151.57C161.858 152.71 162.228 154.06 162.228 155.62C162.228 157.18 161.848 158.53 161.088 159.67C160.348 160.79 159.288 161.65 157.908 162.25L162.618 169H157.398ZM157.308 155.62C157.308 154.44 156.928 153.54 156.168 152.92C155.408 152.28 154.298 151.96 152.838 151.96H148.878V159.28H152.838C154.298 159.28 155.408 158.96 156.168 158.32C156.928 157.68 157.308 156.78 157.308 155.62ZM175.409 169.36C172.409 169.36 170.069 168.53 168.389 166.87C166.729 165.21 165.899 162.84 165.899 159.76V148H170.759V159.58C170.759 163.34 172.319 165.22 175.439 165.22C176.959 165.22 178.119 164.77 178.919 163.87C179.719 162.95 180.119 161.52 180.119 159.58V148H184.919V159.76C184.919 162.84 184.079 165.21 182.399 166.87C180.739 168.53 178.409 169.36 175.409 169.36ZM199.771 169.36C197.631 169.36 195.691 168.9 193.951 167.98C192.231 167.04 190.871 165.75 189.871 164.11C188.891 162.45 188.401 160.58 188.401 158.5C188.401 156.42 188.891 154.56 189.871 152.92C190.871 151.26 192.231 149.97 193.951 149.05C195.691 148.11 197.641 147.64 199.801 147.64C201.621 147.64 203.261 147.96 204.721 148.6C206.201 149.24 207.441 150.16 208.441 151.36L205.321 154.24C203.901 152.6 202.141 151.78 200.041 151.78C198.741 151.78 197.581 152.07 196.561 152.65C195.541 153.21 194.741 154 194.161 155.02C193.601 156.04 193.321 157.2 193.321 158.5C193.321 159.8 193.601 160.96 194.161 161.98C194.741 163 195.541 163.8 196.561 164.38C197.581 164.94 198.741 165.22 200.041 165.22C202.141 165.22 203.901 164.39 205.321 162.73L208.441 165.61C207.441 166.83 206.201 167.76 204.721 168.4C203.241 169.04 201.591 169.36 199.771 169.36ZM215.868 151.96H209.148V148H227.448V151.96H220.728V169H215.868V151.96ZM230.063 148H234.923V169H230.063V148ZM250.077 169.36C247.897 169.36 245.927 168.89 244.167 167.95C242.427 167.01 241.057 165.72 240.057 164.08C239.077 162.42 238.587 160.56 238.587 158.5C238.587 156.44 239.077 154.59 240.057 152.95C241.057 151.29 242.427 149.99 244.167 149.05C245.927 148.11 247.897 147.64 250.077 147.64C252.257 147.64 254.217 148.11 255.957 149.05C257.697 149.99 259.067 151.29 260.067 152.95C261.067 154.59 261.567 156.44 261.567 158.5C261.567 160.56 261.067 162.42 260.067 164.08C259.067 165.72 257.697 167.01 255.957 167.95C254.217 168.89 252.257 169.36 250.077 169.36ZM250.077 165.22C251.317 165.22 252.437 164.94 253.437 164.38C254.437 163.8 255.217 163 255.777 161.98C256.357 160.96 256.647 159.8 256.647 158.5C256.647 157.2 256.357 156.04 255.777 155.02C255.217 154 254.437 153.21 253.437 152.65C252.437 152.07 251.317 151.78 250.077 151.78C248.837 151.78 247.717 152.07 246.717 152.65C245.717 153.21 244.927 154 244.347 155.02C243.787 156.04 243.507 157.2 243.507 158.5C243.507 159.8 243.787 160.96 244.347 161.98C244.927 163 245.717 163.8 246.717 164.38C247.717 164.94 248.837 165.22 250.077 165.22ZM284.479 148V169H280.489L270.019 156.25V169H265.219V148H269.239L279.679 160.75V148H284.479Z" fill="#A1D9DA"/>
<path opacity="0.2" d="M60 432H59V433H60V432Z" fill="#444444"/>
<path d="M190.016 476H123.984C122.873 476 122 476.88 122 478C122 479.12 122.873 480 123.984 480H190.016C191.127 480 192 479.12 192 478C191.921 476.88 191.048 476 190.016 476Z" fill="#6EADAE"/>
<path d="M133 425H130V475H133V425Z" fill="#E8E8E8"/>
<path d="M183 425H180V475H183V425Z" fill="#E8E8E8"/>
<path d="M192 430H122V442H192V430Z" fill="#A1D9DA"/>
<path d="M130 430L129.84 430.228L122.64 442H122V430H130Z" fill="#444444"/>
<path d="M147 430L140.089 442H131L133.779 437.215L137.911 430H147Z" fill="#444444"/>
<path d="M165 430L157.623 442H148L155.377 430H165Z" fill="#444444"/>
<path d="M183 430L175.657 442H166L173.343 430H183Z" fill="#444444"/>
<path d="M192 430V442H183L191.039 430H192Z" fill="#444444"/>
<path d="M192 453H122V465H192V453Z" fill="#A1D9DA"/>
<path d="M130 453L129.84 453.228L122.64 465H122V453H130Z" fill="#444444"/>
<path d="M147 453L140.089 465H131L133.779 460.215L137.911 453H147Z" fill="#444444"/>
<path d="M165 453L157.623 465H148L155.377 453H165Z" fill="#444444"/>
<path d="M183 453L175.657 465H166L173.343 453H183Z" fill="#444444"/>
<path d="M192 453V465H183L191.039 453H192Z" fill="#444444"/>
<path d="M186 475H178V478H186V475Z" fill="#AEAEAE"/>
<path d="M136 475H127V478H136V475Z" fill="#AEAEAE"/>
<path d="M136 423.581C136 424.884 135.184 426.023 133.959 426.593C133.388 426.919 132.735 427 132 427C131.265 427 130.612 426.837 130.041 426.512C128.816 425.942 128 424.802 128 423.5C128 421.547 129.796 420 132 420C134.204 420.081 136 421.628 136 423.581Z" fill="#6EADAE"/>
<path d="M182 427C184.209 427 186 425.433 186 423.5C186 421.567 184.209 420 182 420C179.791 420 178 421.567 178 423.5C178 425.433 179.791 427 182 427Z" fill="#6EADAE"/>
<path d="M288.167 480H185.827C184.795 480 184 480.957 184 482C184 483.13 184.874 484 185.827 484H288.167C289.2 484 289.995 483.043 289.995 482C290.074 480.957 289.2 480 288.167 480Z" fill="#6EADAE"/>
<path d="M267.461 424.402L252.124 373.395L252.045 373H222L222.079 373.395L223.494 378.14L226.955 389.607L227.82 392.454L232.146 406.846L233.011 409.693L235.685 418.629L237.101 423.374L255.034 483H257.865L255.663 475.567H279.966L282.169 483H285L267.461 424.402ZM225.697 375.926H250L250.708 378.219L254.169 389.686H229.865L225.697 375.926ZM230.73 392.533H255.034L259.36 406.925H235.056L230.73 392.533ZM238.595 418.708L237.18 413.963L235.921 409.772H260.225L264.315 423.295C263.685 423.295 262.899 423.295 261.955 423.295C259.36 423.295 255.978 423.295 252.596 423.295C247.326 423.295 242.135 423.374 240.011 423.374L238.595 418.708ZM240.876 426.221C249.921 426.142 261.955 426.142 265.18 426.142L269.348 440.139H245.045L240.876 426.221ZM245.91 443.065H270.213L274.382 456.983H250.079L245.91 443.065ZM254.798 472.72L250.944 459.83H275.247L279.101 472.72H254.798Z" fill="#AEAEAE"/>
<path d="M222.034 373L221.955 373.396L206.618 424.36L189 483H191.831L194.034 475.561H218.337L216.135 483H218.966L236.899 423.331L238.315 418.583L240.989 409.719L241.854 406.871L246.18 392.468L247.045 389.619L250.506 378.144L251.921 373.396L252 373H222.034V373ZM219.281 472.712H194.978L198.831 459.813H223.135L219.281 472.712ZM224 456.964H199.697L203.865 443.036H228.169L224 456.964ZM229.034 440.187H204.73L208.899 426.18C212.202 426.101 224.157 426.18 233.202 426.259L229.034 440.187ZM236.978 413.914L235.562 418.662L234.146 423.41C232.022 423.41 226.831 423.331 221.562 423.331C218.18 423.331 214.719 423.331 212.202 423.331C211.258 423.331 210.472 423.331 209.843 423.331L213.933 409.799H238.236L236.978 413.914ZM239.022 406.871H214.719L219.045 392.468H243.348L239.022 406.871ZM244.213 389.619H219.91L223.371 378.144L224.079 375.849H248.382L244.213 389.619Z" fill="#E8E8E8"/>
<path d="M277.568 488H261.893H251.47H236.91C235.875 488 235 488.687 235 489.5C235 490.313 235.875 491 236.91 491H261.893C262.609 491 263.325 490.688 263.644 490.188H277.568C278.363 490.188 279 489.687 279 489.062C279 488.437 278.363 488 277.568 488Z" fill="#6EADAE"/>
<path d="M276 466.08V488.357C276 488.759 275.685 489 275.371 489H255.629C255.236 489 255 488.678 255 488.357V466H276V466.08Z" fill="#E8E8E8"/>
<path d="M276 466H275.219C275.219 460.961 271.078 456.853 266 456.853C260.922 456.853 256.781 460.961 256.781 466H256C256 460.496 260.531 456 266.078 456C271.469 456 276 460.496 276 466Z" fill="#E8E8E8"/>
<path d="M276 466V469.995C275.368 470.143 274.5 469.551 273.711 469.477C273 469.404 272.289 469.699 271.974 470.217C271.579 470.735 271.579 471.549 271.105 471.919C270.553 472.363 269.684 472.141 269.053 471.845C268.421 471.549 267.789 471.031 267.079 471.031C266.526 471.031 265.974 471.253 265.579 471.623C265.342 471.771 265.184 471.993 265.026 472.215C264.632 472.881 264.474 473.695 264.316 474.435C264.237 475.027 264 475.693 263.447 475.915C263.132 476.063 262.737 475.989 262.342 475.915C261.079 475.545 260.053 474.583 259.737 473.473C259.342 472.289 259.5 470.735 258.237 470.143C257.684 469.921 257.053 469.995 256.5 469.847C255.868 469.773 255.316 469.404 255 468.96V466H276Z" fill="#6EADAE"/>
<path opacity="0.2" d="M266 456V456.781C260.922 456.781 256.782 460.922 256.782 466H256.001C255.923 460.531 260.454 456 266 456Z" fill="#444444"/>
<path opacity="0.2" d="M255 466H266V489H255.739C255.328 489 255.082 488.678 255.082 488.357V466H255Z" fill="#444444"/>
<path d="M261 468V488.406C261 488.777 260.683 489 260.366 489H240.634C240.238 489 240 488.703 240 488.406V468H261Z" fill="#E8E8E8"/>
<path d="M260 468H259.213C259.213 462.882 255.039 458.788 250 458.788C244.882 458.788 240.787 462.882 240.787 468H240C240 462.489 244.488 458.001 250 458.001C255.512 457.922 260 462.489 260 468Z" fill="#E8E8E8"/>
<path d="M261 468V471.951C260.364 472.1 259.489 471.578 258.693 471.429C258.057 471.354 257.261 471.652 256.943 472.174C256.545 472.696 256.545 473.441 256.068 473.889C255.511 474.336 254.636 474.112 254 473.814C253.364 473.516 252.727 473.069 252.011 472.994C251.455 472.994 250.898 473.218 250.5 473.591C250.261 473.74 250.102 473.963 249.943 474.187C249.545 474.858 249.386 475.678 249.307 476.423C249.227 477.019 248.989 477.69 248.432 477.914C248.114 478.063 247.716 477.988 247.318 477.914C246.045 477.541 245.011 476.647 244.693 475.454C244.295 474.261 244.455 472.696 243.261 472.174C242.705 471.951 242.068 472.025 241.511 471.876C240.875 471.802 240.398 471.429 240 471.056V468.075H261V468Z" fill="#A1D9DA"/>
<path opacity="0.2" d="M241.136 467.602H250V489H240.606C240.227 489 240 488.698 240 488.395V467.602H240.379C240.379 462.31 244.697 458 250 458V458.756C245.076 458.756 241.136 462.688 241.136 467.602Z" fill="#444444"/>
<path d="M118.774 478H48.2221C46.9523 478 46 478.929 46 480C46 481.143 47.0317 482 48.2221 482H118.774C120.043 482 120.996 481.071 120.996 480C121.075 478.929 120.043 478 118.774 478Z" fill="#6EADAE"/>
<path d="M72 384H69V477H72V384Z" fill="#E8E8E8"/>
<path d="M71.5 387C82.2696 387 91 378.046 91 367C91 355.954 82.2696 347 71.5 347C60.7305 347 52 355.954 52 367C52 378.046 60.7305 387 71.5 387Z" fill="#A1D9DA"/>
<path d="M71.5 385C81.165 385 89 377.165 89 367.5C89 357.835 81.165 350 71.5 350C61.835 350 54 357.835 54 367.5C54 377.165 61.835 385 71.5 385Z" fill="#A1D9DA"/>
<path d="M71.5 385C61.2589 385 53 376.884 53 367C53 357.036 61.3415 349 71.5 349C81.7411 349 90 357.116 90 367C90 376.964 81.6585 385 71.5 385ZM71.5 350.045C61.8371 350.045 54.0737 357.679 54.0737 367C54.0737 376.402 61.9196 383.955 71.5 383.955C81.163 383.955 88.9263 376.321 88.9263 367C88.9263 357.679 81.163 350.045 71.5 350.045Z" fill="#444444"/>
<path d="M83.8764 363.126L82.3931 361.7C82.0635 362.017 81.5691 362.017 81.2395 361.7L81.0747 361.541L81.4867 361.145C81.5691 361.066 81.5691 360.908 81.4867 360.749L77.6961 357.105C77.6961 357.105 74.812 355.045 72.2575 356.55L72.9991 357.184C72.9991 357.184 74.1528 357.105 75.5536 357.659C76.1305 357.897 76.2129 358.61 75.8008 359.006L75.3888 359.402C75.0592 359.719 75.0592 360.274 75.3888 360.67L75.7184 360.987L67.9725 368.434L67.8077 368.275C67.6429 368.117 67.3957 368.117 67.2309 368.275L60.309 374.93C59.897 375.326 59.897 375.96 60.309 376.435L61.6275 377.703C62.0395 378.099 62.6987 378.099 63.1931 377.703L70.115 371.048C70.2798 370.89 70.2798 370.652 70.115 370.494L69.9502 370.335L77.6961 362.888L78.4378 363.601C78.5202 363.68 78.685 363.68 78.8498 363.601L79.2618 363.205L79.4266 363.364C79.7562 363.68 79.7562 364.156 79.4266 364.473L80.9099 365.899C81.0747 366.057 81.4043 366.057 81.5691 365.899L83.8764 363.68C84.0412 363.522 84.0412 363.284 83.8764 363.126Z" fill="#444444"/>
<path d="M71 364.034L69.0274 366L65.7651 362.748C64.4754 363.278 62.958 362.975 61.8959 361.917C60.8337 360.858 60.8337 359.119 61.2889 357.833L63.6408 360.631C63.7926 360.782 64.096 360.858 64.2478 360.631L65.6134 359.27C65.7651 359.119 65.7651 358.816 65.6134 358.665L62.8063 356.321C64.0961 355.792 65.841 355.867 66.9032 356.926C67.9653 357.984 68.1929 359.497 67.7377 360.782L71 364.034Z" fill="#444444"/>
<path d="M77.1279 373.893C76.9676 374.036 76.9676 374.324 77.1279 374.467L80.0924 376.695C78.7303 377.198 76.8875 377.126 75.7658 376.12C74.644 375.114 74.4037 373.677 74.8844 372.455L72 369.868L74.0832 368L76.9676 370.587C78.3297 370.084 79.9321 370.371 81.0539 371.377C82.1756 372.383 82.1756 374.036 81.6949 375.258L79.211 372.599C79.0508 372.455 78.7303 372.383 78.57 372.599L77.1279 373.893Z" fill="#444444"/>
<path d="M74.939 477H66.061C64.9512 477 64 477.8 64 478.733V480H77V478.733C77 477.8 76.0488 477 74.939 477Z" fill="#AEAEAE"/>
<path opacity="0.2" d="M70 347V480H63.9008V478.5C63.9008 477.395 64.7934 476.448 65.8347 476.448H68.3637V386.782C59.1405 385.519 52 377.073 52 366.97C52 356.235 60.0331 347.474 70 347Z" fill="#444444"/>
<path d="M57.9581 482H32.0419C30.9424 482 30 482.923 30 484C30 485.154 30.9424 486 32.0419 486H57.9581C59.0576 486 60 485.077 60 484C60 482.923 59.1361 482 57.9581 482Z" fill="#6EADAE"/>
<path d="M52.0268 472.043L50.433 465.724L48.4598 457.767L47.2455 452.697C46.7143 450.434 44.3616 450.434 43.8304 452.697L42.5402 457.767L40.567 465.724L38.9732 472.043L37 480H54L52.0268 472.043Z" fill="#A1D9DA"/>
<path d="M58 480H33V484H58V480Z" fill="#A1D9DA"/>
<path d="M54 480H37L38.9732 473H52.0268L54 480Z" fill="#444444"/>
<path d="M51 466H40L42.2 458H48.8L51 466Z" fill="#444444"/>
<path opacity="0.2" d="M46 451V484H33V480.572H36.3576L38.596 472.442L40.404 465.986L42.6424 457.855L44.106 452.674C44.3642 451.558 45.2252 451 46 451Z" fill="#444444"/>
<path d="M114 475H91L93.7011 467.599L95.8292 461.663L98.5303 454.262L100.249 449.545C100.658 448.488 101.559 448 102.541 448C103.523 448 104.505 448.488 104.833 449.545L106.552 454.262L109.253 461.663L111.381 467.599L114 475Z" fill="#6EADAE"/>
<path d="M117 475H88V480H117V475Z" fill="#6EADAE"/>
<path d="M114 475H91L93.6286 468H111.371L114 475Z" fill="white"/>
<path d="M109 462H96L98.6158 455H106.384L109 462Z" fill="white"/>
<path opacity="0.2" d="M103 448V480H88V474.56H91.8095L94.4286 467.28L96.4921 461.44L99.1111 454.16L100.778 449.52C101.095 448.48 102.048 448 103 448Z" fill="#444444"/>
<path d="M72.6895 227H71.793V214.15H78.833V214.977H72.6895V220.426H78.4902V221.261H72.6895V227ZM81.3643 217.446V223.634C81.3643 224.595 81.5664 225.295 81.9707 225.734C82.375 226.168 83.002 226.385 83.8516 226.385C84.9883 226.385 85.8232 226.098 86.3564 225.523C86.8955 224.949 87.165 224.015 87.165 222.72V217.446H88.0264V227H87.2881L87.1299 225.682H87.0771C86.4561 226.678 85.3516 227.176 83.7637 227.176C81.5898 227.176 80.5029 226.013 80.5029 223.687V217.446H81.3643ZM92.0957 227H91.2256V213.324H92.0957V227ZM96.1738 227H95.3037V213.324H96.1738V227ZM108.145 227.176C106.674 227.176 105.602 226.625 104.928 225.523H104.866L104.893 226.262C104.916 226.695 104.928 227.17 104.928 227.686V231.324H104.058V217.446H104.796L104.963 218.809H105.016C105.672 217.777 106.721 217.262 108.162 217.262C109.451 217.262 110.433 217.687 111.106 218.536C111.786 219.38 112.126 220.61 112.126 222.228C112.126 223.798 111.769 225.017 111.054 225.884C110.345 226.745 109.375 227.176 108.145 227.176ZM108.127 226.402C109.105 226.402 109.861 226.039 110.395 225.312C110.934 224.586 111.203 223.569 111.203 222.263C111.203 219.456 110.189 218.053 108.162 218.053C107.049 218.053 106.231 218.36 105.71 218.976C105.188 219.585 104.928 220.581 104.928 221.964V222.245C104.928 223.739 105.177 224.806 105.675 225.444C106.179 226.083 106.996 226.402 108.127 226.402ZM118.542 217.262C118.946 217.262 119.38 217.303 119.843 217.385L119.676 218.22C119.277 218.12 118.864 218.07 118.437 218.07C117.622 218.07 116.954 218.416 116.433 219.107C115.911 219.799 115.65 220.672 115.65 221.727V227H114.78V217.446H115.519L115.606 219.169H115.668C116.061 218.466 116.479 217.974 116.925 217.692C117.37 217.405 117.909 217.262 118.542 217.262ZM129.695 222.21C129.695 223.769 129.317 224.987 128.562 225.866C127.806 226.739 126.763 227.176 125.433 227.176C124.595 227.176 123.856 226.974 123.218 226.569C122.579 226.165 122.09 225.585 121.75 224.829C121.41 224.073 121.24 223.2 121.24 222.21C121.24 220.651 121.618 219.438 122.374 218.571C123.13 217.698 124.167 217.262 125.485 217.262C126.798 217.262 127.826 217.704 128.57 218.589C129.32 219.468 129.695 220.675 129.695 222.21ZM122.154 222.21C122.154 223.522 122.441 224.548 123.016 225.286C123.596 226.019 124.413 226.385 125.468 226.385C126.522 226.385 127.337 226.019 127.911 225.286C128.491 224.548 128.781 223.522 128.781 222.21C128.781 220.892 128.488 219.869 127.902 219.143C127.322 218.416 126.505 218.053 125.45 218.053C124.396 218.053 123.581 218.416 123.007 219.143C122.438 219.863 122.154 220.886 122.154 222.21ZM139.794 217.446V218.053L137.816 218.176C138.344 218.832 138.607 219.553 138.607 220.338C138.607 221.258 138.3 222.005 137.685 222.579C137.075 223.147 136.255 223.432 135.224 223.432C134.79 223.432 134.485 223.414 134.31 223.379C133.964 223.561 133.7 223.774 133.519 224.021C133.337 224.267 133.246 224.527 133.246 224.803C133.246 225.107 133.36 225.33 133.589 225.471C133.823 225.611 134.213 225.682 134.758 225.682H136.428C137.465 225.682 138.259 225.893 138.81 226.314C139.36 226.73 139.636 227.349 139.636 228.169C139.636 229.177 139.226 229.953 138.405 230.498C137.591 231.049 136.428 231.324 134.916 231.324C133.715 231.324 132.783 231.093 132.121 230.63C131.465 230.167 131.137 229.522 131.137 228.696C131.137 228.04 131.339 227.495 131.743 227.062C132.153 226.628 132.707 226.332 133.404 226.174C133.117 226.051 132.886 225.878 132.71 225.655C132.54 225.427 132.455 225.166 132.455 224.873C132.455 224.234 132.862 223.672 133.677 223.186C133.12 222.957 132.687 222.6 132.376 222.113C132.065 221.621 131.91 221.059 131.91 220.426C131.91 219.471 132.212 218.706 132.815 218.132C133.425 217.552 134.245 217.262 135.276 217.262C135.903 217.262 136.39 217.323 136.735 217.446H139.794ZM132.06 228.617C132.06 229.93 133.035 230.586 134.986 230.586C137.494 230.586 138.748 229.786 138.748 228.187C138.748 227.612 138.552 227.196 138.159 226.938C137.767 226.681 137.131 226.552 136.252 226.552H134.688C132.936 226.552 132.06 227.24 132.06 228.617ZM132.789 220.426C132.789 221.164 133.012 221.738 133.457 222.148C133.908 222.553 134.509 222.755 135.259 222.755C136.056 222.755 136.665 222.553 137.087 222.148C137.515 221.744 137.729 221.158 137.729 220.391C137.729 219.576 137.509 218.967 137.069 218.562C136.636 218.152 136.026 217.947 135.241 217.947C134.479 217.947 133.879 218.167 133.439 218.606C133.006 219.04 132.789 219.646 132.789 220.426ZM145.524 217.262C145.929 217.262 146.362 217.303 146.825 217.385L146.658 218.22C146.26 218.12 145.847 218.07 145.419 218.07C144.604 218.07 143.937 218.416 143.415 219.107C142.894 219.799 142.633 220.672 142.633 221.727V227H141.763V217.446H142.501L142.589 219.169H142.65C143.043 218.466 143.462 217.974 143.907 217.692C144.353 217.405 144.892 217.262 145.524 217.262ZM154.577 227L154.357 225.488H154.287C153.807 226.104 153.312 226.54 152.802 226.798C152.298 227.05 151.7 227.176 151.009 227.176C150.071 227.176 149.342 226.936 148.82 226.455C148.299 225.975 148.038 225.31 148.038 224.46C148.038 223.528 148.425 222.805 149.198 222.289C149.978 221.773 151.103 221.501 152.573 221.472L154.393 221.419V220.786C154.393 219.878 154.208 219.192 153.839 218.729C153.47 218.267 152.875 218.035 152.055 218.035C151.17 218.035 150.253 218.281 149.304 218.773L148.979 218.018C150.027 217.525 151.064 217.279 152.09 217.279C153.139 217.279 153.921 217.552 154.437 218.097C154.958 218.642 155.219 219.491 155.219 220.646V227H154.577ZM151.062 226.385C152.081 226.385 152.884 226.095 153.47 225.515C154.062 224.929 154.357 224.117 154.357 223.08V222.14L152.688 222.21C151.346 222.274 150.388 222.485 149.813 222.843C149.245 223.194 148.961 223.745 148.961 224.495C148.961 225.093 149.143 225.559 149.506 225.893C149.875 226.221 150.394 226.385 151.062 226.385ZM170.257 227V220.733C170.257 219.802 170.075 219.122 169.712 218.694C169.349 218.267 168.792 218.053 168.042 218.053C167.063 218.053 166.34 218.322 165.871 218.861C165.402 219.4 165.168 220.247 165.168 221.401V227H164.28V220.47C164.28 218.858 163.542 218.053 162.065 218.053C161.063 218.053 160.334 218.346 159.877 218.932C159.42 219.512 159.191 220.443 159.191 221.727V227H158.321V217.446H159.042L159.227 218.756H159.279C159.543 218.281 159.918 217.915 160.404 217.657C160.891 217.394 161.427 217.262 162.013 217.262C163.519 217.262 164.485 217.827 164.913 218.958H164.948C165.259 218.413 165.675 217.994 166.196 217.701C166.724 217.408 167.321 217.262 167.989 217.262C169.032 217.262 169.814 217.54 170.336 218.097C170.857 218.653 171.118 219.538 171.118 220.751V227H170.257ZM184.812 224.513C184.812 225.368 184.486 226.027 183.836 226.49C183.186 226.947 182.263 227.176 181.067 227.176C179.79 227.176 178.776 226.979 178.026 226.587V225.646C178.987 226.127 180.001 226.367 181.067 226.367C182.011 226.367 182.726 226.212 183.212 225.901C183.704 225.585 183.95 225.166 183.95 224.645C183.95 224.164 183.754 223.76 183.361 223.432C182.975 223.104 182.336 222.781 181.445 222.465C180.49 222.119 179.819 221.823 179.433 221.577C179.046 221.325 178.753 221.044 178.554 220.733C178.36 220.417 178.264 220.033 178.264 219.582C178.264 218.867 178.562 218.302 179.16 217.886C179.764 217.47 180.604 217.262 181.683 217.262C182.714 217.262 183.692 217.455 184.618 217.842L184.293 218.633C183.355 218.246 182.485 218.053 181.683 218.053C180.903 218.053 180.285 218.182 179.828 218.439C179.371 218.697 179.143 219.055 179.143 219.512C179.143 220.01 179.318 220.408 179.67 220.707C180.027 221.006 180.722 221.34 181.753 221.709C182.614 222.02 183.241 222.301 183.634 222.553C184.026 222.799 184.319 223.08 184.513 223.396C184.712 223.713 184.812 224.085 184.812 224.513ZM191.087 227.176C189.722 227.176 188.652 226.745 187.879 225.884C187.105 225.022 186.719 223.821 186.719 222.28C186.719 220.698 187.12 219.468 187.923 218.589C188.726 217.704 189.824 217.262 191.219 217.262C192.045 217.262 192.836 217.405 193.592 217.692L193.354 218.466C192.528 218.19 191.811 218.053 191.201 218.053C190.029 218.053 189.142 218.416 188.538 219.143C187.935 219.863 187.633 220.903 187.633 222.263C187.633 223.552 187.935 224.562 188.538 225.295C189.142 226.021 189.985 226.385 191.069 226.385C191.937 226.385 192.742 226.229 193.486 225.919V226.728C192.877 227.026 192.077 227.176 191.087 227.176ZM202.495 227V220.804C202.495 219.843 202.293 219.146 201.889 218.712C201.484 218.272 200.857 218.053 200.008 218.053C198.865 218.053 198.027 218.343 197.494 218.923C196.967 219.497 196.703 220.432 196.703 221.727V227H195.833V213.324H196.703V217.675L196.659 218.896H196.721C197.078 218.322 197.529 217.906 198.074 217.648C198.619 217.391 199.296 217.262 200.104 217.262C202.272 217.262 203.356 218.425 203.356 220.751V227H202.495ZM210.309 227.176C208.92 227.176 207.836 226.748 207.057 225.893C206.283 225.037 205.896 223.839 205.896 222.298C205.896 220.774 206.271 219.556 207.021 218.642C207.771 217.722 208.782 217.262 210.054 217.262C211.179 217.262 212.066 217.654 212.717 218.439C213.367 219.225 213.692 220.291 213.692 221.639V222.342H206.811C206.822 223.654 207.127 224.656 207.725 225.348C208.328 226.039 209.189 226.385 210.309 226.385C210.854 226.385 211.331 226.347 211.741 226.271C212.157 226.194 212.682 226.03 213.314 225.778V226.569C212.775 226.804 212.277 226.962 211.82 227.044C211.363 227.132 210.859 227.176 210.309 227.176ZM210.054 218.035C209.134 218.035 208.396 218.34 207.839 218.949C207.282 219.553 206.957 220.426 206.863 221.568H212.77C212.77 220.461 212.529 219.597 212.049 218.976C211.568 218.349 210.903 218.035 210.054 218.035ZM219.827 217.262C220.519 217.262 221.116 217.388 221.62 217.64C222.124 217.892 222.575 218.322 222.974 218.932H223.026C222.991 218.193 222.974 217.47 222.974 216.761V213.324H223.835V227H223.264L223.044 225.541H222.974C222.247 226.631 221.204 227.176 219.845 227.176C218.526 227.176 217.519 226.766 216.821 225.945C216.124 225.125 215.775 223.93 215.775 222.359C215.775 220.707 216.121 219.444 216.812 218.571C217.504 217.698 218.509 217.262 219.827 217.262ZM219.827 218.053C218.784 218.053 217.999 218.419 217.472 219.151C216.95 219.884 216.689 220.947 216.689 222.342C216.689 225.049 217.741 226.402 219.845 226.402C220.923 226.402 221.714 226.089 222.218 225.462C222.722 224.835 222.974 223.801 222.974 222.359V222.21C222.974 220.733 222.725 219.673 222.227 219.028C221.734 218.378 220.935 218.053 219.827 218.053ZM227.808 217.446V223.634C227.808 224.595 228.01 225.295 228.414 225.734C228.818 226.168 229.445 226.385 230.295 226.385C231.432 226.385 232.267 226.098 232.8 225.523C233.339 224.949 233.608 224.015 233.608 222.72V217.446H234.47V227H233.731L233.573 225.682H233.521C232.899 226.678 231.795 227.176 230.207 227.176C228.033 227.176 226.946 226.013 226.946 223.687V217.446H227.808ZM238.539 227H237.669V213.324H238.539V227ZM245.605 227.176C244.217 227.176 243.133 226.748 242.354 225.893C241.58 225.037 241.193 223.839 241.193 222.298C241.193 220.774 241.568 219.556 242.318 218.642C243.068 217.722 244.079 217.262 245.351 217.262C246.476 217.262 247.363 217.654 248.014 218.439C248.664 219.225 248.989 220.291 248.989 221.639V222.342H242.107C242.119 223.654 242.424 224.656 243.021 225.348C243.625 226.039 244.486 226.385 245.605 226.385C246.15 226.385 246.628 226.347 247.038 226.271C247.454 226.194 247.979 226.03 248.611 225.778V226.569C248.072 226.804 247.574 226.962 247.117 227.044C246.66 227.132 246.156 227.176 245.605 227.176ZM245.351 218.035C244.431 218.035 243.692 218.34 243.136 218.949C242.579 219.553 242.254 220.426 242.16 221.568H248.066C248.066 220.461 247.826 219.597 247.346 218.976C246.865 218.349 246.2 218.035 245.351 218.035ZM101.957 252H101.087V242.446H101.957V252ZM100.964 239.792C100.964 239.229 101.148 238.948 101.518 238.948C101.699 238.948 101.84 239.021 101.939 239.168C102.045 239.314 102.098 239.522 102.098 239.792C102.098 240.056 102.045 240.264 101.939 240.416C101.84 240.568 101.699 240.645 101.518 240.645C101.148 240.645 100.964 240.36 100.964 239.792ZM111.089 249.513C111.089 250.368 110.764 251.027 110.113 251.49C109.463 251.947 108.54 252.176 107.345 252.176C106.067 252.176 105.054 251.979 104.304 251.587V250.646C105.265 251.127 106.278 251.367 107.345 251.367C108.288 251.367 109.003 251.212 109.489 250.901C109.981 250.585 110.228 250.166 110.228 249.645C110.228 249.164 110.031 248.76 109.639 248.432C109.252 248.104 108.613 247.781 107.723 247.465C106.768 247.119 106.097 246.823 105.71 246.577C105.323 246.325 105.03 246.044 104.831 245.733C104.638 245.417 104.541 245.033 104.541 244.582C104.541 243.867 104.84 243.302 105.438 242.886C106.041 242.47 106.882 242.262 107.96 242.262C108.991 242.262 109.97 242.455 110.896 242.842L110.57 243.633C109.633 243.246 108.763 243.053 107.96 243.053C107.181 243.053 106.562 243.182 106.105 243.439C105.648 243.697 105.42 244.055 105.42 244.512C105.42 245.01 105.596 245.408 105.947 245.707C106.305 246.006 106.999 246.34 108.03 246.709C108.892 247.02 109.519 247.301 109.911 247.553C110.304 247.799 110.597 248.08 110.79 248.396C110.989 248.713 111.089 249.085 111.089 249.513ZM122.04 252.176C120.675 252.176 119.605 251.745 118.832 250.884C118.059 250.022 117.672 248.821 117.672 247.28C117.672 245.698 118.073 244.468 118.876 243.589C119.679 242.704 120.777 242.262 122.172 242.262C122.998 242.262 123.789 242.405 124.545 242.692L124.308 243.466C123.481 243.19 122.764 243.053 122.154 243.053C120.982 243.053 120.095 243.416 119.491 244.143C118.888 244.863 118.586 245.903 118.586 247.263C118.586 248.552 118.888 249.562 119.491 250.295C120.095 251.021 120.938 251.385 122.022 251.385C122.89 251.385 123.695 251.229 124.439 250.919V251.728C123.83 252.026 123.03 252.176 122.04 252.176ZM134.688 247.21C134.688 248.769 134.31 249.987 133.554 250.866C132.798 251.739 131.755 252.176 130.425 252.176C129.587 252.176 128.849 251.974 128.21 251.569C127.571 251.165 127.082 250.585 126.742 249.829C126.402 249.073 126.232 248.2 126.232 247.21C126.232 245.651 126.61 244.438 127.366 243.571C128.122 242.698 129.159 242.262 130.478 242.262C131.79 242.262 132.818 242.704 133.562 243.589C134.312 244.468 134.688 245.675 134.688 247.21ZM127.146 247.21C127.146 248.522 127.434 249.548 128.008 250.286C128.588 251.019 129.405 251.385 130.46 251.385C131.515 251.385 132.329 251.019 132.903 250.286C133.483 249.548 133.773 248.522 133.773 247.21C133.773 245.892 133.48 244.869 132.895 244.143C132.314 243.416 131.497 243.053 130.442 243.053C129.388 243.053 128.573 243.416 127.999 244.143C127.431 244.863 127.146 245.886 127.146 247.21ZM149.269 252V245.733C149.269 244.802 149.087 244.122 148.724 243.694C148.36 243.267 147.804 243.053 147.054 243.053C146.075 243.053 145.352 243.322 144.883 243.861C144.414 244.4 144.18 245.247 144.18 246.401V252H143.292V245.47C143.292 243.858 142.554 243.053 141.077 243.053C140.075 243.053 139.346 243.346 138.889 243.932C138.432 244.512 138.203 245.443 138.203 246.727V252H137.333V242.446H138.054L138.238 243.756H138.291C138.555 243.281 138.93 242.915 139.416 242.657C139.902 242.394 140.438 242.262 141.024 242.262C142.53 242.262 143.497 242.827 143.925 243.958H143.96C144.271 243.413 144.687 242.994 145.208 242.701C145.735 242.408 146.333 242.262 147.001 242.262C148.044 242.262 148.826 242.54 149.348 243.097C149.869 243.653 150.13 244.538 150.13 245.751V252H149.269ZM154.094 252H153.224V242.446H154.094V252ZM153.101 239.792C153.101 239.229 153.285 238.948 153.654 238.948C153.836 238.948 153.977 239.021 154.076 239.168C154.182 239.314 154.234 239.522 154.234 239.792C154.234 240.056 154.182 240.264 154.076 240.416C153.977 240.568 153.836 240.645 153.654 240.645C153.285 240.645 153.101 240.36 153.101 239.792ZM163.964 252V245.804C163.964 244.843 163.762 244.146 163.357 243.712C162.953 243.272 162.326 243.053 161.477 243.053C160.334 243.053 159.496 243.343 158.963 243.923C158.436 244.497 158.172 245.432 158.172 246.727V252H157.302V242.446H158.04L158.207 243.756H158.26C158.881 242.76 159.985 242.262 161.573 242.262C163.741 242.262 164.825 243.425 164.825 245.751V252H163.964ZM175.372 242.446V243.053L173.395 243.176C173.922 243.832 174.186 244.553 174.186 245.338C174.186 246.258 173.878 247.005 173.263 247.579C172.653 248.147 171.833 248.432 170.802 248.432C170.368 248.432 170.063 248.414 169.888 248.379C169.542 248.561 169.278 248.774 169.097 249.021C168.915 249.267 168.824 249.527 168.824 249.803C168.824 250.107 168.938 250.33 169.167 250.471C169.401 250.611 169.791 250.682 170.336 250.682H172.006C173.043 250.682 173.837 250.893 174.388 251.314C174.938 251.73 175.214 252.349 175.214 253.169C175.214 254.177 174.804 254.953 173.983 255.498C173.169 256.049 172.006 256.324 170.494 256.324C169.293 256.324 168.361 256.093 167.699 255.63C167.043 255.167 166.715 254.522 166.715 253.696C166.715 253.04 166.917 252.495 167.321 252.062C167.731 251.628 168.285 251.332 168.982 251.174C168.695 251.051 168.464 250.878 168.288 250.655C168.118 250.427 168.033 250.166 168.033 249.873C168.033 249.234 168.44 248.672 169.255 248.186C168.698 247.957 168.265 247.6 167.954 247.113C167.644 246.621 167.488 246.059 167.488 245.426C167.488 244.471 167.79 243.706 168.394 243.132C169.003 242.552 169.823 242.262 170.854 242.262C171.481 242.262 171.968 242.323 172.313 242.446H175.372ZM167.638 253.617C167.638 254.93 168.613 255.586 170.564 255.586C173.072 255.586 174.326 254.786 174.326 253.187C174.326 252.612 174.13 252.196 173.737 251.938C173.345 251.681 172.709 251.552 171.83 251.552H170.266C168.514 251.552 167.638 252.24 167.638 253.617ZM168.367 245.426C168.367 246.164 168.59 246.738 169.035 247.148C169.486 247.553 170.087 247.755 170.837 247.755C171.634 247.755 172.243 247.553 172.665 247.148C173.093 246.744 173.307 246.158 173.307 245.391C173.307 244.576 173.087 243.967 172.647 243.562C172.214 243.152 171.604 242.947 170.819 242.947C170.058 242.947 169.457 243.167 169.018 243.606C168.584 244.04 168.367 244.646 168.367 245.426ZM187.94 249.513C187.94 250.368 187.615 251.027 186.965 251.49C186.314 251.947 185.392 252.176 184.196 252.176C182.919 252.176 181.905 251.979 181.155 251.587V250.646C182.116 251.127 183.13 251.367 184.196 251.367C185.14 251.367 185.854 251.212 186.341 250.901C186.833 250.585 187.079 250.166 187.079 249.645C187.079 249.164 186.883 248.76 186.49 248.432C186.104 248.104 185.465 247.781 184.574 247.465C183.619 247.119 182.948 246.823 182.562 246.577C182.175 246.325 181.882 246.044 181.683 245.733C181.489 245.417 181.393 245.033 181.393 244.582C181.393 243.867 181.691 243.302 182.289 242.886C182.893 242.47 183.733 242.262 184.812 242.262C185.843 242.262 186.821 242.455 187.747 242.842L187.422 243.633C186.484 243.246 185.614 243.053 184.812 243.053C184.032 243.053 183.414 243.182 182.957 243.439C182.5 243.697 182.271 244.055 182.271 244.512C182.271 245.01 182.447 245.408 182.799 245.707C183.156 246.006 183.851 246.34 184.882 246.709C185.743 247.02 186.37 247.301 186.763 247.553C187.155 247.799 187.448 248.08 187.642 248.396C187.841 248.713 187.94 249.085 187.94 249.513ZM198.303 247.21C198.303 248.769 197.925 249.987 197.169 250.866C196.413 251.739 195.37 252.176 194.04 252.176C193.202 252.176 192.464 251.974 191.825 251.569C191.187 251.165 190.697 250.585 190.357 249.829C190.018 249.073 189.848 248.2 189.848 247.21C189.848 245.651 190.226 244.438 190.981 243.571C191.737 242.698 192.774 242.262 194.093 242.262C195.405 242.262 196.434 242.704 197.178 243.589C197.928 244.468 198.303 245.675 198.303 247.21ZM190.762 247.21C190.762 248.522 191.049 249.548 191.623 250.286C192.203 251.019 193.021 251.385 194.075 251.385C195.13 251.385 195.944 251.019 196.519 250.286C197.099 249.548 197.389 248.522 197.389 247.21C197.389 245.892 197.096 244.869 196.51 244.143C195.93 243.416 195.112 243.053 194.058 243.053C193.003 243.053 192.188 243.416 191.614 244.143C191.046 244.863 190.762 245.886 190.762 247.21ZM208.85 247.21C208.85 248.769 208.472 249.987 207.716 250.866C206.96 251.739 205.917 252.176 204.587 252.176C203.749 252.176 203.011 251.974 202.372 251.569C201.733 251.165 201.244 250.585 200.904 249.829C200.564 249.073 200.395 248.2 200.395 247.21C200.395 245.651 200.772 244.438 201.528 243.571C202.284 242.698 203.321 242.262 204.64 242.262C205.952 242.262 206.98 242.704 207.725 243.589C208.475 244.468 208.85 245.675 208.85 247.21ZM201.309 247.21C201.309 248.522 201.596 249.548 202.17 250.286C202.75 251.019 203.567 251.385 204.622 251.385C205.677 251.385 206.491 251.019 207.065 250.286C207.646 249.548 207.936 248.522 207.936 247.21C207.936 245.892 207.643 244.869 207.057 244.143C206.477 243.416 205.659 243.053 204.604 243.053C203.55 243.053 202.735 243.416 202.161 244.143C201.593 244.863 201.309 245.886 201.309 247.21ZM218.157 252V245.804C218.157 244.843 217.955 244.146 217.551 243.712C217.146 243.272 216.52 243.053 215.67 243.053C214.527 243.053 213.689 243.343 213.156 243.923C212.629 244.497 212.365 245.432 212.365 246.727V252H211.495V242.446H212.233L212.4 243.756H212.453C213.074 242.76 214.179 242.262 215.767 242.262C217.935 242.262 219.019 243.425 219.019 245.751V252H218.157Z" fill="white"/>
</svg>
