<svg width="1440" height="1024" viewBox="0 0 1440 1024" fill="none" xmlns="http://www.w3.org/2000/svg">
<g clip-path="url(#clip0)">
<rect width="1440" height="1024" fill="#EFEFEF"/>
<path d="M1440 -2H0V1024H1440V-2Z" fill="#1C2B3F"/>
<path opacity="0.2" d="M426 674H422V677H426V674Z" fill="#444444"/>
<path d="M295.368 243.864C288.168 243.864 282.552 241.872 278.52 237.888C274.536 233.904 272.544 228.216 272.544 220.824V192.6H284.208V220.392C284.208 229.416 287.952 233.928 295.44 233.928C299.088 233.928 301.872 232.848 303.792 230.688C305.712 228.48 306.672 225.048 306.672 220.392V192.6H318.192V220.824C318.192 228.216 316.176 233.904 312.144 237.888C308.16 241.872 302.568 243.864 295.368 243.864ZM375.942 192.6V243H366.366L341.238 212.4V243H329.718V192.6H339.366L364.422 223.2V192.6H375.942ZM387.867 192.6H410.763C416.235 192.6 421.059 193.656 425.235 195.768C429.459 197.832 432.723 200.76 435.027 204.552C437.379 208.344 438.555 212.76 438.555 217.8C438.555 222.84 437.379 227.256 435.027 231.048C432.723 234.84 429.459 237.792 425.235 239.904C421.059 241.968 416.235 243 410.763 243H387.867V192.6ZM410.187 233.424C415.227 233.424 419.235 232.032 422.211 229.248C425.235 226.416 426.747 222.6 426.747 217.8C426.747 213 425.235 209.208 422.211 206.424C419.235 203.592 415.227 202.176 410.187 202.176H399.531V233.424H410.187ZM486.375 233.64V243H447.351V192.6H485.439V201.96H458.943V212.904H482.343V221.976H458.943V233.64H486.375ZM527.768 243L518.048 228.96H517.472H507.32V243H495.656V192.6H517.472C521.936 192.6 525.8 193.344 529.064 194.832C532.376 196.32 534.92 198.432 536.696 201.168C538.472 203.904 539.36 207.144 539.36 210.888C539.36 214.632 538.448 217.872 536.624 220.608C534.848 223.296 532.304 225.36 528.992 226.8L540.296 243H527.768ZM527.552 210.888C527.552 208.056 526.64 205.896 524.816 204.408C522.992 202.872 520.328 202.104 516.824 202.104H507.32V219.672H516.824C520.328 219.672 522.992 218.904 524.816 217.368C526.64 215.832 527.552 213.672 527.552 210.888ZM593.112 243.864C587.976 243.864 583.32 242.76 579.144 240.552C575.016 238.296 571.752 235.2 569.352 231.264C567 227.28 565.824 222.792 565.824 217.8C565.824 212.808 567 208.344 569.352 204.408C571.752 200.424 575.016 197.328 579.144 195.12C583.32 192.864 588 191.736 593.184 191.736C597.552 191.736 601.488 192.504 604.992 194.04C608.544 195.576 611.52 197.784 613.92 200.664L606.432 207.576C603.024 203.64 598.8 201.672 593.76 201.672C590.64 201.672 587.856 202.368 585.408 203.76C582.96 205.104 581.04 207 579.648 209.448C578.304 211.896 577.632 214.68 577.632 217.8C577.632 220.92 578.304 223.704 579.648 226.152C581.04 228.6 582.96 230.52 585.408 231.912C587.856 233.256 590.64 233.928 593.76 233.928C598.8 233.928 603.024 231.936 606.432 227.952L613.92 234.864C611.52 237.792 608.544 240.024 604.992 241.56C601.44 243.096 597.48 243.864 593.112 243.864ZM645.15 243.864C639.918 243.864 635.19 242.736 630.966 240.48C626.79 238.224 623.502 235.128 621.102 231.192C618.75 227.208 617.574 222.744 617.574 217.8C617.574 212.856 618.75 208.416 621.102 204.48C623.502 200.496 626.79 197.376 630.966 195.12C635.19 192.864 639.918 191.736 645.15 191.736C650.382 191.736 655.086 192.864 659.262 195.12C663.438 197.376 666.726 200.496 669.126 204.48C671.526 208.416 672.726 212.856 672.726 217.8C672.726 222.744 671.526 227.208 669.126 231.192C666.726 235.128 663.438 238.224 659.262 240.48C655.086 242.736 650.382 243.864 645.15 243.864ZM645.15 233.928C648.126 233.928 650.814 233.256 653.214 231.912C655.614 230.52 657.486 228.6 658.83 226.152C660.222 223.704 660.918 220.92 660.918 217.8C660.918 214.68 660.222 211.896 658.83 209.448C657.486 207 655.614 205.104 653.214 203.76C650.814 202.368 648.126 201.672 645.15 201.672C642.174 201.672 639.486 202.368 637.086 203.76C634.686 205.104 632.79 207 631.398 209.448C630.054 211.896 629.382 214.68 629.382 217.8C629.382 220.92 630.054 223.704 631.398 226.152C632.79 228.6 634.686 230.52 637.086 231.912C639.486 233.256 642.174 233.928 645.15 233.928ZM727.716 192.6V243H718.14L693.012 212.4V243H681.492V192.6H691.14L716.196 223.2V192.6H727.716ZM756.2 243.864C752.216 243.864 748.352 243.336 744.608 242.28C740.912 241.176 737.936 239.76 735.68 238.032L739.64 229.248C741.8 230.832 744.368 232.104 747.344 233.064C750.32 234.024 753.296 234.504 756.272 234.504C759.584 234.504 762.032 234.024 763.616 233.064C765.2 232.056 765.992 230.736 765.992 229.104C765.992 227.904 765.512 226.92 764.552 226.152C763.64 225.336 762.44 224.688 760.952 224.208C759.512 223.728 757.544 223.2 755.048 222.624C751.208 221.712 748.064 220.8 745.616 219.888C743.168 218.976 741.056 217.512 739.28 215.496C737.552 213.48 736.688 210.792 736.688 207.432C736.688 204.504 737.48 201.864 739.064 199.512C740.648 197.112 743.024 195.216 746.192 193.824C749.408 192.432 753.32 191.736 757.928 191.736C761.144 191.736 764.288 192.12 767.36 192.888C770.432 193.656 773.12 194.76 775.424 196.2L771.824 205.056C767.168 202.416 762.512 201.096 757.856 201.096C754.592 201.096 752.168 201.624 750.584 202.68C749.048 203.736 748.28 205.128 748.28 206.856C748.28 208.584 749.168 209.88 750.944 210.744C752.768 211.56 755.528 212.376 759.224 213.192C763.064 214.104 766.208 215.016 768.656 215.928C771.104 216.84 773.192 218.28 774.92 220.248C776.696 222.216 777.584 224.88 777.584 228.24C777.584 231.12 776.768 233.76 775.136 236.16C773.552 238.512 771.152 240.384 767.936 241.776C764.72 243.168 760.808 243.864 756.2 243.864ZM795.291 202.104H779.163V192.6H823.083V202.104H806.955V243H795.291V202.104ZM861.471 243L851.751 228.96H851.175H841.023V243H829.359V192.6H851.175C855.639 192.6 859.503 193.344 862.767 194.832C866.079 196.32 868.623 198.432 870.399 201.168C872.175 203.904 873.063 207.144 873.063 210.888C873.063 214.632 872.151 217.872 870.327 220.608C868.551 223.296 866.007 225.36 862.695 226.8L873.999 243H861.471ZM861.255 210.888C861.255 208.056 860.343 205.896 858.519 204.408C856.695 202.872 854.031 202.104 850.527 202.104H841.023V219.672H850.527C854.031 219.672 856.695 218.904 858.519 217.368C860.343 215.832 861.255 213.672 861.255 210.888ZM904.696 243.864C897.496 243.864 891.88 241.872 887.848 237.888C883.864 233.904 881.872 228.216 881.872 220.824V192.6H893.536V220.392C893.536 229.416 897.28 233.928 904.768 233.928C908.416 233.928 911.2 232.848 913.12 230.688C915.04 228.48 916 225.048 916 220.392V192.6H927.52V220.824C927.52 228.216 925.504 233.904 921.472 237.888C917.488 241.872 911.896 243.864 904.696 243.864ZM963.166 243.864C958.03 243.864 953.374 242.76 949.198 240.552C945.07 238.296 941.806 235.2 939.406 231.264C937.054 227.28 935.878 222.792 935.878 217.8C935.878 212.808 937.054 208.344 939.406 204.408C941.806 200.424 945.07 197.328 949.198 195.12C953.374 192.864 958.054 191.736 963.238 191.736C967.606 191.736 971.542 192.504 975.046 194.04C978.598 195.576 981.574 197.784 983.974 200.664L976.486 207.576C973.078 203.64 968.854 201.672 963.814 201.672C960.694 201.672 957.91 202.368 955.462 203.76C953.014 205.104 951.094 207 949.702 209.448C948.358 211.896 947.686 214.68 947.686 217.8C947.686 220.92 948.358 223.704 949.702 226.152C951.094 228.6 953.014 230.52 955.462 231.912C957.91 233.256 960.694 233.928 963.814 233.928C968.854 233.928 973.078 231.936 976.486 227.952L983.974 234.864C981.574 237.792 978.598 240.024 975.046 241.56C971.494 243.096 967.534 243.864 963.166 243.864ZM1001.8 202.104H985.671V192.6H1029.59V202.104H1013.46V243H1001.8V202.104ZM1035.87 192.6H1047.53V243H1035.87V192.6ZM1083.9 243.864C1078.67 243.864 1073.94 242.736 1069.72 240.48C1065.54 238.224 1062.25 235.128 1059.85 231.192C1057.5 227.208 1056.32 222.744 1056.32 217.8C1056.32 212.856 1057.5 208.416 1059.85 204.48C1062.25 200.496 1065.54 197.376 1069.72 195.12C1073.94 192.864 1078.67 191.736 1083.9 191.736C1089.13 191.736 1093.84 192.864 1098.01 195.12C1102.19 197.376 1105.48 200.496 1107.88 204.48C1110.28 208.416 1111.48 212.856 1111.48 217.8C1111.48 222.744 1110.28 227.208 1107.88 231.192C1105.48 235.128 1102.19 238.224 1098.01 240.48C1093.84 242.736 1089.13 243.864 1083.9 243.864ZM1083.9 233.928C1086.88 233.928 1089.56 233.256 1091.96 231.912C1094.36 230.52 1096.24 228.6 1097.58 226.152C1098.97 223.704 1099.67 220.92 1099.67 217.8C1099.67 214.68 1098.97 211.896 1097.58 209.448C1096.24 207 1094.36 205.104 1091.96 203.76C1089.56 202.368 1086.88 201.672 1083.9 201.672C1080.92 201.672 1078.24 202.368 1075.84 203.76C1073.44 205.104 1071.54 207 1070.15 209.448C1068.8 211.896 1068.13 214.68 1068.13 217.8C1068.13 220.92 1068.8 223.704 1070.15 226.152C1071.54 228.6 1073.44 230.52 1075.84 231.912C1078.24 233.256 1080.92 233.928 1083.9 233.928ZM1166.47 192.6V243H1156.89L1131.76 212.4V243H1120.24V192.6H1129.89L1154.95 223.2V192.6H1166.47Z" fill="#A1D9DA"/>
<path d="M414.432 318H412.639V292.301H426.719V293.953H414.432V304.852H426.033V306.521H414.432V318ZM431.781 298.893V311.268C431.781 313.189 432.186 314.59 432.994 315.469C433.803 316.336 435.057 316.77 436.756 316.77C439.029 316.77 440.699 316.195 441.766 315.047C442.844 313.898 443.383 312.029 443.383 309.439V298.893H445.105V318H443.629L443.312 315.363H443.207C441.965 317.355 439.756 318.352 436.58 318.352C432.232 318.352 430.059 316.025 430.059 311.373V298.893H431.781ZM453.244 318H451.504V290.648H453.244V318ZM461.4 318H459.66V290.648H461.4V318ZM485.342 318.352C482.4 318.352 480.256 317.25 478.908 315.047H478.785L478.838 316.523C478.885 317.391 478.908 318.34 478.908 319.371V326.648H477.168V298.893H478.645L478.979 301.617H479.084C480.396 299.555 482.494 298.523 485.377 298.523C487.955 298.523 489.918 299.373 491.266 301.072C492.625 302.76 493.305 305.221 493.305 308.455C493.305 311.596 492.59 314.033 491.16 315.768C489.742 317.49 487.803 318.352 485.342 318.352ZM485.307 316.805C487.264 316.805 488.775 316.078 489.842 314.625C490.92 313.172 491.459 311.139 491.459 308.525C491.459 302.912 489.432 300.105 485.377 300.105C483.15 300.105 481.516 300.721 480.473 301.951C479.43 303.17 478.908 305.162 478.908 307.928V308.49C478.908 311.479 479.406 313.611 480.402 314.889C481.41 316.166 483.045 316.805 485.307 316.805ZM506.137 298.523C506.945 298.523 507.812 298.605 508.738 298.77L508.404 300.439C507.607 300.24 506.781 300.141 505.926 300.141C504.297 300.141 502.961 300.832 501.918 302.215C500.875 303.598 500.354 305.344 500.354 307.453V318H498.613V298.893H500.09L500.266 302.338H500.389C501.174 300.932 502.012 299.947 502.902 299.385C503.793 298.811 504.871 298.523 506.137 298.523ZM528.443 308.42C528.443 311.537 527.688 313.975 526.176 315.732C524.664 317.479 522.578 318.352 519.918 318.352C518.242 318.352 516.766 317.947 515.488 317.139C514.211 316.33 513.232 315.17 512.553 313.658C511.873 312.146 511.533 310.4 511.533 308.42C511.533 305.303 512.289 302.877 513.801 301.143C515.312 299.396 517.387 298.523 520.023 298.523C522.648 298.523 524.705 299.408 526.193 301.178C527.693 302.936 528.443 305.35 528.443 308.42ZM513.361 308.42C513.361 311.045 513.936 313.096 515.084 314.572C516.244 316.037 517.879 316.77 519.988 316.77C522.098 316.77 523.727 316.037 524.875 314.572C526.035 313.096 526.615 311.045 526.615 308.42C526.615 305.783 526.029 303.738 524.857 302.285C523.697 300.832 522.062 300.105 519.953 300.105C517.844 300.105 516.215 300.832 515.066 302.285C513.93 303.727 513.361 305.771 513.361 308.42ZM548.641 298.893V300.105L544.686 300.352C545.74 301.664 546.268 303.105 546.268 304.676C546.268 306.516 545.652 308.01 544.422 309.158C543.203 310.295 541.562 310.863 539.5 310.863C538.633 310.863 538.023 310.828 537.672 310.758C536.98 311.121 536.453 311.549 536.09 312.041C535.727 312.533 535.545 313.055 535.545 313.605C535.545 314.215 535.773 314.66 536.23 314.941C536.699 315.223 537.479 315.363 538.568 315.363H541.908C543.982 315.363 545.57 315.785 546.672 316.629C547.773 317.461 548.324 318.697 548.324 320.338C548.324 322.354 547.504 323.906 545.863 324.996C544.234 326.098 541.908 326.648 538.885 326.648C536.482 326.648 534.619 326.186 533.295 325.26C531.982 324.334 531.326 323.045 531.326 321.393C531.326 320.08 531.73 318.99 532.539 318.123C533.359 317.256 534.467 316.664 535.861 316.348C535.287 316.102 534.824 315.756 534.473 315.311C534.133 314.854 533.963 314.332 533.963 313.746C533.963 312.469 534.777 311.344 536.406 310.371C535.293 309.914 534.426 309.199 533.805 308.227C533.184 307.242 532.873 306.117 532.873 304.852C532.873 302.941 533.477 301.412 534.684 300.264C535.902 299.104 537.543 298.523 539.605 298.523C540.859 298.523 541.832 298.646 542.523 298.893H548.641ZM533.172 321.234C533.172 323.859 535.123 325.172 539.025 325.172C544.041 325.172 546.549 323.572 546.549 320.373C546.549 319.225 546.156 318.393 545.371 317.877C544.586 317.361 543.314 317.104 541.557 317.104H538.428C534.924 317.104 533.172 318.48 533.172 321.234ZM534.631 304.852C534.631 306.328 535.076 307.477 535.967 308.297C536.869 309.105 538.07 309.51 539.57 309.51C541.164 309.51 542.383 309.105 543.227 308.297C544.082 307.488 544.51 306.316 544.51 304.781C544.51 303.152 544.07 301.934 543.191 301.125C542.324 300.305 541.105 299.895 539.535 299.895C538.012 299.895 536.811 300.334 535.932 301.213C535.064 302.08 534.631 303.293 534.631 304.852ZM560.102 298.523C560.91 298.523 561.777 298.605 562.703 298.77L562.369 300.439C561.572 300.24 560.746 300.141 559.891 300.141C558.262 300.141 556.926 300.832 555.883 302.215C554.84 303.598 554.318 305.344 554.318 307.453V318H552.578V298.893H554.055L554.23 302.338H554.354C555.139 300.932 555.977 299.947 556.867 299.385C557.758 298.811 558.836 298.523 560.102 298.523ZM578.207 318L577.768 314.977H577.627C576.666 316.207 575.676 317.08 574.656 317.596C573.648 318.1 572.453 318.352 571.07 318.352C569.195 318.352 567.736 317.871 566.693 316.91C565.65 315.949 565.129 314.619 565.129 312.92C565.129 311.057 565.902 309.609 567.449 308.578C569.008 307.547 571.258 307.002 574.199 306.943L577.838 306.838V305.572C577.838 303.756 577.469 302.385 576.73 301.459C575.992 300.533 574.803 300.07 573.162 300.07C571.393 300.07 569.559 300.562 567.66 301.547L567.01 300.035C569.107 299.051 571.182 298.559 573.232 298.559C575.33 298.559 576.895 299.104 577.926 300.193C578.969 301.283 579.49 302.982 579.49 305.291V318H578.207ZM571.176 316.77C573.215 316.77 574.82 316.189 575.992 315.029C577.176 313.857 577.768 312.234 577.768 310.16V308.279L574.428 308.42C571.744 308.549 569.828 308.971 568.68 309.686C567.543 310.389 566.975 311.49 566.975 312.99C566.975 314.186 567.338 315.117 568.064 315.785C568.803 316.441 569.84 316.77 571.176 316.77ZM609.566 318V305.467C609.566 303.604 609.203 302.244 608.477 301.389C607.75 300.533 606.637 300.105 605.137 300.105C603.18 300.105 601.732 300.645 600.795 301.723C599.857 302.801 599.389 304.494 599.389 306.803V318H597.613V304.939C597.613 301.717 596.137 300.105 593.184 300.105C591.18 300.105 589.721 300.691 588.807 301.863C587.893 303.023 587.436 304.887 587.436 307.453V318H585.695V298.893H587.137L587.506 301.512H587.611C588.139 300.562 588.889 299.83 589.861 299.314C590.834 298.787 591.906 298.523 593.078 298.523C596.09 298.523 598.023 299.654 598.879 301.916H598.949C599.57 300.826 600.402 299.988 601.445 299.402C602.5 298.816 603.695 298.523 605.031 298.523C607.117 298.523 608.682 299.08 609.725 300.193C610.768 301.307 611.289 303.076 611.289 305.502V318H609.566ZM638.676 313.025C638.676 314.736 638.025 316.055 636.725 316.98C635.424 317.895 633.578 318.352 631.188 318.352C628.633 318.352 626.605 317.959 625.105 317.174V315.293C627.027 316.254 629.055 316.734 631.188 316.734C633.074 316.734 634.504 316.424 635.477 315.803C636.461 315.17 636.953 314.332 636.953 313.289C636.953 312.328 636.561 311.52 635.775 310.863C635.002 310.207 633.725 309.562 631.943 308.93C630.033 308.238 628.691 307.646 627.918 307.154C627.145 306.65 626.559 306.088 626.16 305.467C625.773 304.834 625.58 304.066 625.58 303.164C625.58 301.734 626.178 300.604 627.373 299.771C628.58 298.939 630.262 298.523 632.418 298.523C634.48 298.523 636.438 298.91 638.289 299.684L637.639 301.266C635.764 300.492 634.023 300.105 632.418 300.105C630.859 300.105 629.623 300.363 628.709 300.879C627.795 301.395 627.338 302.109 627.338 303.023C627.338 304.02 627.689 304.816 628.393 305.414C629.107 306.012 630.496 306.68 632.559 307.418C634.281 308.039 635.535 308.602 636.32 309.105C637.105 309.598 637.691 310.16 638.078 310.793C638.477 311.426 638.676 312.17 638.676 313.025ZM651.227 318.352C648.496 318.352 646.357 317.49 644.811 315.768C643.264 314.045 642.49 311.643 642.49 308.561C642.49 305.396 643.293 302.936 644.898 301.178C646.504 299.408 648.701 298.523 651.49 298.523C653.143 298.523 654.725 298.811 656.236 299.385L655.762 300.932C654.109 300.381 652.674 300.105 651.455 300.105C649.111 300.105 647.336 300.832 646.129 302.285C644.922 303.727 644.318 305.807 644.318 308.525C644.318 311.104 644.922 313.125 646.129 314.59C647.336 316.043 649.023 316.77 651.191 316.77C652.926 316.77 654.537 316.459 656.025 315.838V317.455C654.807 318.053 653.207 318.352 651.227 318.352ZM674.043 318V305.607C674.043 303.686 673.639 302.291 672.83 301.424C672.021 300.545 670.768 300.105 669.068 300.105C666.783 300.105 665.107 300.686 664.041 301.846C662.986 302.994 662.459 304.863 662.459 307.453V318H660.719V290.648H662.459V299.35L662.371 301.793H662.494C663.209 300.645 664.111 299.812 665.201 299.297C666.291 298.781 667.645 298.523 669.262 298.523C673.598 298.523 675.766 300.85 675.766 305.502V318H674.043ZM689.67 318.352C686.893 318.352 684.725 317.496 683.166 315.785C681.619 314.074 680.846 311.678 680.846 308.596C680.846 305.549 681.596 303.111 683.096 301.283C684.596 299.443 686.617 298.523 689.16 298.523C691.41 298.523 693.186 299.309 694.486 300.879C695.787 302.449 696.438 304.582 696.438 307.277V308.684H682.674C682.697 311.309 683.307 313.312 684.502 314.695C685.709 316.078 687.432 316.77 689.67 316.77C690.76 316.77 691.715 316.693 692.535 316.541C693.367 316.389 694.416 316.061 695.682 315.557V317.139C694.604 317.607 693.607 317.924 692.693 318.088C691.779 318.264 690.771 318.352 689.67 318.352ZM689.16 300.07C687.32 300.07 685.844 300.68 684.73 301.898C683.617 303.105 682.967 304.852 682.779 307.137H694.592C694.592 304.922 694.111 303.193 693.15 301.951C692.189 300.697 690.859 300.07 689.16 300.07ZM708.707 298.523C710.09 298.523 711.285 298.775 712.293 299.279C713.301 299.783 714.203 300.645 715 301.863H715.105C715.035 300.387 715 298.939 715 297.521V290.648H716.723V318H715.58L715.141 315.082H715C713.547 317.262 711.461 318.352 708.742 318.352C706.105 318.352 704.09 317.531 702.695 315.891C701.301 314.25 700.604 311.859 700.604 308.719C700.604 305.414 701.295 302.889 702.678 301.143C704.061 299.396 706.07 298.523 708.707 298.523ZM708.707 300.105C706.621 300.105 705.051 300.838 703.996 302.303C702.953 303.768 702.432 305.895 702.432 308.684C702.432 314.098 704.535 316.805 708.742 316.805C710.898 316.805 712.48 316.178 713.488 314.924C714.496 313.67 715 311.602 715 308.719V308.42C715 305.467 714.502 303.346 713.506 302.057C712.521 300.756 710.922 300.105 708.707 300.105ZM724.668 298.893V311.268C724.668 313.189 725.072 314.59 725.881 315.469C726.689 316.336 727.943 316.77 729.643 316.77C731.916 316.77 733.586 316.195 734.652 315.047C735.73 313.898 736.27 312.029 736.27 309.439V298.893H737.992V318H736.516L736.199 315.363H736.094C734.852 317.355 732.643 318.352 729.467 318.352C725.119 318.352 722.945 316.025 722.945 311.373V298.893H724.668ZM746.131 318H744.391V290.648H746.131V318ZM760.264 318.352C757.486 318.352 755.318 317.496 753.76 315.785C752.213 314.074 751.439 311.678 751.439 308.596C751.439 305.549 752.189 303.111 753.689 301.283C755.189 299.443 757.211 298.523 759.754 298.523C762.004 298.523 763.779 299.309 765.08 300.879C766.381 302.449 767.031 304.582 767.031 307.277V308.684H753.268C753.291 311.309 753.9 313.312 755.096 314.695C756.303 316.078 758.025 316.77 760.264 316.77C761.354 316.77 762.309 316.693 763.129 316.541C763.961 316.389 765.01 316.061 766.275 315.557V317.139C765.197 317.607 764.201 317.924 763.287 318.088C762.373 318.264 761.365 318.352 760.264 318.352ZM759.754 300.07C757.914 300.07 756.438 300.68 755.324 301.898C754.211 303.105 753.561 304.852 753.373 307.137H765.186C765.186 304.922 764.705 303.193 763.744 301.951C762.783 300.697 761.453 300.07 759.754 300.07ZM783.396 318H781.656V298.893H783.396V318ZM781.41 293.584C781.41 292.459 781.779 291.896 782.518 291.896C782.881 291.896 783.162 292.043 783.361 292.336C783.572 292.629 783.678 293.045 783.678 293.584C783.678 294.111 783.572 294.527 783.361 294.832C783.162 295.137 782.881 295.289 782.518 295.289C781.779 295.289 781.41 294.721 781.41 293.584ZM801.66 313.025C801.66 314.736 801.01 316.055 799.709 316.98C798.408 317.895 796.562 318.352 794.172 318.352C791.617 318.352 789.59 317.959 788.09 317.174V315.293C790.012 316.254 792.039 316.734 794.172 316.734C796.059 316.734 797.488 316.424 798.461 315.803C799.445 315.17 799.938 314.332 799.938 313.289C799.938 312.328 799.545 311.52 798.76 310.863C797.986 310.207 796.709 309.562 794.928 308.93C793.018 308.238 791.676 307.646 790.902 307.154C790.129 306.65 789.543 306.088 789.145 305.467C788.758 304.834 788.564 304.066 788.564 303.164C788.564 301.734 789.162 300.604 790.357 299.771C791.564 298.939 793.246 298.523 795.402 298.523C797.465 298.523 799.422 298.91 801.273 299.684L800.623 301.266C798.748 300.492 797.008 300.105 795.402 300.105C793.844 300.105 792.607 300.363 791.693 300.879C790.779 301.395 790.322 302.109 790.322 303.023C790.322 304.02 790.674 304.816 791.377 305.414C792.092 306.012 793.48 306.68 795.543 307.418C797.266 308.039 798.52 308.602 799.305 309.105C800.09 309.598 800.676 310.16 801.062 310.793C801.461 311.426 801.66 312.17 801.66 313.025ZM823.562 318.352C820.832 318.352 818.693 317.49 817.146 315.768C815.6 314.045 814.826 311.643 814.826 308.561C814.826 305.396 815.629 302.936 817.234 301.178C818.84 299.408 821.037 298.523 823.826 298.523C825.479 298.523 827.061 298.811 828.572 299.385L828.098 300.932C826.445 300.381 825.01 300.105 823.791 300.105C821.447 300.105 819.672 300.832 818.465 302.285C817.258 303.727 816.654 305.807 816.654 308.525C816.654 311.104 817.258 313.125 818.465 314.59C819.672 316.043 821.359 316.77 823.527 316.77C825.262 316.77 826.873 316.459 828.361 315.838V317.455C827.143 318.053 825.543 318.352 823.562 318.352ZM848.857 308.42C848.857 311.537 848.102 313.975 846.59 315.732C845.078 317.479 842.992 318.352 840.332 318.352C838.656 318.352 837.18 317.947 835.902 317.139C834.625 316.33 833.646 315.17 832.967 313.658C832.287 312.146 831.947 310.4 831.947 308.42C831.947 305.303 832.703 302.877 834.215 301.143C835.727 299.396 837.801 298.523 840.438 298.523C843.062 298.523 845.119 299.408 846.607 301.178C848.107 302.936 848.857 305.35 848.857 308.42ZM833.775 308.42C833.775 311.045 834.35 313.096 835.498 314.572C836.658 316.037 838.293 316.77 840.402 316.77C842.512 316.77 844.141 316.037 845.289 314.572C846.449 313.096 847.029 311.045 847.029 308.42C847.029 305.783 846.443 303.738 845.271 302.285C844.111 300.832 842.477 300.105 840.367 300.105C838.258 300.105 836.629 300.832 835.48 302.285C834.344 303.727 833.775 305.771 833.775 308.42ZM878.02 318V305.467C878.02 303.604 877.656 302.244 876.93 301.389C876.203 300.533 875.09 300.105 873.59 300.105C871.633 300.105 870.186 300.645 869.248 301.723C868.311 302.801 867.842 304.494 867.842 306.803V318H866.066V304.939C866.066 301.717 864.59 300.105 861.637 300.105C859.633 300.105 858.174 300.691 857.26 301.863C856.346 303.023 855.889 304.887 855.889 307.453V318H854.148V298.893H855.59L855.959 301.512H856.064C856.592 300.562 857.342 299.83 858.314 299.314C859.287 298.787 860.359 298.523 861.531 298.523C864.543 298.523 866.477 299.654 867.332 301.916H867.402C868.023 300.826 868.855 299.988 869.898 299.402C870.953 298.816 872.148 298.523 873.484 298.523C875.57 298.523 877.135 299.08 878.178 300.193C879.221 301.307 879.742 303.076 879.742 305.502V318H878.02ZM887.67 318H885.93V298.893H887.67V318ZM885.684 293.584C885.684 292.459 886.053 291.896 886.791 291.896C887.154 291.896 887.436 292.043 887.635 292.336C887.846 292.629 887.951 293.045 887.951 293.584C887.951 294.111 887.846 294.527 887.635 294.832C887.436 295.137 887.154 295.289 886.791 295.289C886.053 295.289 885.684 294.721 885.684 293.584ZM907.41 318V305.607C907.41 303.686 907.006 302.291 906.197 301.424C905.389 300.545 904.135 300.105 902.436 300.105C900.15 300.105 898.475 300.686 897.408 301.846C896.354 302.994 895.826 304.863 895.826 307.453V318H894.086V298.893H895.562L895.896 301.512H896.002C897.244 299.52 899.453 298.523 902.629 298.523C906.965 298.523 909.133 300.85 909.133 305.502V318H907.41ZM930.227 298.893V300.105L926.271 300.352C927.326 301.664 927.854 303.105 927.854 304.676C927.854 306.516 927.238 308.01 926.008 309.158C924.789 310.295 923.148 310.863 921.086 310.863C920.219 310.863 919.609 310.828 919.258 310.758C918.566 311.121 918.039 311.549 917.676 312.041C917.312 312.533 917.131 313.055 917.131 313.605C917.131 314.215 917.359 314.66 917.816 314.941C918.285 315.223 919.064 315.363 920.154 315.363H923.494C925.568 315.363 927.156 315.785 928.258 316.629C929.359 317.461 929.91 318.697 929.91 320.338C929.91 322.354 929.09 323.906 927.449 324.996C925.82 326.098 923.494 326.648 920.471 326.648C918.068 326.648 916.205 326.186 914.881 325.26C913.568 324.334 912.912 323.045 912.912 321.393C912.912 320.08 913.316 318.99 914.125 318.123C914.945 317.256 916.053 316.664 917.447 316.348C916.873 316.102 916.41 315.756 916.059 315.311C915.719 314.854 915.549 314.332 915.549 313.746C915.549 312.469 916.363 311.344 917.992 310.371C916.879 309.914 916.012 309.199 915.391 308.227C914.77 307.242 914.459 306.117 914.459 304.852C914.459 302.941 915.062 301.412 916.27 300.264C917.488 299.104 919.129 298.523 921.191 298.523C922.445 298.523 923.418 298.646 924.109 298.893H930.227ZM914.758 321.234C914.758 323.859 916.709 325.172 920.611 325.172C925.627 325.172 928.135 323.572 928.135 320.373C928.135 319.225 927.742 318.393 926.957 317.877C926.172 317.361 924.9 317.104 923.143 317.104H920.014C916.51 317.104 914.758 318.48 914.758 321.234ZM916.217 304.852C916.217 306.328 916.662 307.477 917.553 308.297C918.455 309.105 919.656 309.51 921.156 309.51C922.75 309.51 923.969 309.105 924.812 308.297C925.668 307.488 926.096 306.316 926.096 304.781C926.096 303.152 925.656 301.934 924.777 301.125C923.91 300.305 922.691 299.895 921.121 299.895C919.598 299.895 918.396 300.334 917.518 301.213C916.65 302.08 916.217 303.293 916.217 304.852ZM955.363 313.025C955.363 314.736 954.713 316.055 953.412 316.98C952.111 317.895 950.266 318.352 947.875 318.352C945.32 318.352 943.293 317.959 941.793 317.174V315.293C943.715 316.254 945.742 316.734 947.875 316.734C949.762 316.734 951.191 316.424 952.164 315.803C953.148 315.17 953.641 314.332 953.641 313.289C953.641 312.328 953.248 311.52 952.463 310.863C951.689 310.207 950.412 309.562 948.631 308.93C946.721 308.238 945.379 307.646 944.605 307.154C943.832 306.65 943.246 306.088 942.848 305.467C942.461 304.834 942.268 304.066 942.268 303.164C942.268 301.734 942.865 300.604 944.061 299.771C945.268 298.939 946.949 298.523 949.105 298.523C951.168 298.523 953.125 298.91 954.977 299.684L954.326 301.266C952.451 300.492 950.711 300.105 949.105 300.105C947.547 300.105 946.311 300.363 945.396 300.879C944.482 301.395 944.025 302.109 944.025 303.023C944.025 304.02 944.377 304.816 945.08 305.414C945.795 306.012 947.184 306.68 949.246 307.418C950.969 308.039 952.223 308.602 953.008 309.105C953.793 309.598 954.379 310.16 954.766 310.793C955.164 311.426 955.363 312.17 955.363 313.025ZM976.088 308.42C976.088 311.537 975.332 313.975 973.82 315.732C972.309 317.479 970.223 318.352 967.562 318.352C965.887 318.352 964.41 317.947 963.133 317.139C961.855 316.33 960.877 315.17 960.197 313.658C959.518 312.146 959.178 310.4 959.178 308.42C959.178 305.303 959.934 302.877 961.445 301.143C962.957 299.396 965.031 298.523 967.668 298.523C970.293 298.523 972.35 299.408 973.838 301.178C975.338 302.936 976.088 305.35 976.088 308.42ZM961.006 308.42C961.006 311.045 961.58 313.096 962.729 314.572C963.889 316.037 965.523 316.77 967.633 316.77C969.742 316.77 971.371 316.037 972.52 314.572C973.68 313.096 974.26 311.045 974.26 308.42C974.26 305.783 973.674 303.738 972.502 302.285C971.342 300.832 969.707 300.105 967.598 300.105C965.488 300.105 963.859 300.832 962.711 302.285C961.574 303.727 961.006 305.771 961.006 308.42ZM997.182 308.42C997.182 311.537 996.426 313.975 994.914 315.732C993.402 317.479 991.316 318.352 988.656 318.352C986.98 318.352 985.504 317.947 984.227 317.139C982.949 316.33 981.971 315.17 981.291 313.658C980.611 312.146 980.271 310.4 980.271 308.42C980.271 305.303 981.027 302.877 982.539 301.143C984.051 299.396 986.125 298.523 988.762 298.523C991.387 298.523 993.443 299.408 994.932 301.178C996.432 302.936 997.182 305.35 997.182 308.42ZM982.1 308.42C982.1 311.045 982.674 313.096 983.822 314.572C984.982 316.037 986.617 316.77 988.727 316.77C990.836 316.77 992.465 316.037 993.613 314.572C994.773 313.096 995.354 311.045 995.354 308.42C995.354 305.783 994.768 303.738 993.596 302.285C992.436 300.832 990.801 300.105 988.691 300.105C986.582 300.105 984.953 300.832 983.805 302.285C982.668 303.727 982.1 305.771 982.1 308.42ZM1015.8 318V305.607C1015.8 303.686 1015.39 302.291 1014.58 301.424C1013.78 300.545 1012.52 300.105 1010.82 300.105C1008.54 300.105 1006.86 300.686 1005.79 301.846C1004.74 302.994 1004.21 304.863 1004.21 307.453V318H1002.47V298.893H1003.95L1004.28 301.512H1004.39C1005.63 299.52 1007.84 298.523 1011.02 298.523C1015.35 298.523 1017.52 300.85 1017.52 305.502V318H1015.8Z" fill="white"/>
<path d="M820.65 809.18H620.49C617.121 809.18 614.475 811.832 614.475 815.207C614.475 818.583 617.121 821.235 620.49 821.235H820.65C824.018 821.235 826.664 818.583 826.664 815.207C826.424 811.832 823.777 809.18 820.65 809.18Z" fill="#6EADAE"/>
<path d="M649.599 653.421H638.051V805.804H649.599V653.421Z" fill="#E8E8E8"/>
<path d="M802.847 653.421H791.299V805.804H802.847V653.421Z" fill="#E8E8E8"/>
<path d="M826.424 668.129H614.475V706.225H826.424V668.129Z" fill="#A1D9DA"/>
<path d="M638.533 668.129L638.052 668.852L616.4 706.225H614.475V668.129H638.533Z" fill="#444444"/>
<path d="M692.181 668.129L670.048 706.225H640.938L649.84 691.035L663.072 668.129H692.181Z" fill="#444444"/>
<path d="M745.589 668.129L723.456 706.225H694.586L716.719 668.129H745.589Z" fill="#444444"/>
<path d="M799.238 668.129L777.105 706.225H747.995L770.128 668.129H799.238Z" fill="#444444"/>
<path d="M826.423 668.129V706.225H801.643L823.776 668.129H826.423Z" fill="#444444"/>
<path d="M826.424 736.123H614.475V774.218H826.424V736.123Z" fill="#A1D9DA"/>
<path d="M638.533 736.123L638.052 736.846L616.4 774.218H614.475V736.123H638.533Z" fill="#444444"/>
<path d="M692.181 736.123L670.048 774.218H640.938L649.84 759.028L663.072 736.123H692.181Z" fill="#444444"/>
<path d="M745.589 736.123L723.456 774.218H694.586L716.719 736.123H745.589Z" fill="#444444"/>
<path d="M799.238 736.123L777.105 774.218H747.995L770.128 736.123H799.238Z" fill="#444444"/>
<path d="M826.423 736.123V774.218H801.643L823.776 736.123H826.423Z" fill="#444444"/>
<path d="M810.305 806.045H783.601V813.519H810.305V806.045Z" fill="#AEAEAE"/>
<path d="M657.298 806.045H630.594V813.519H657.298V806.045Z" fill="#AEAEAE"/>
<path d="M655.854 647.393C655.854 651.251 653.448 654.627 649.839 656.314C648.155 657.279 646.231 657.52 644.066 657.52C641.9 657.52 639.976 657.038 638.292 656.073C634.683 654.386 632.277 651.01 632.277 647.152C632.277 641.366 637.57 636.784 644.066 636.784C650.561 637.026 655.854 641.607 655.854 647.393Z" fill="#6EADAE"/>
<path d="M797.073 657.761C803.584 657.761 808.862 653.119 808.862 647.393C808.862 641.667 803.584 637.025 797.073 637.025C790.563 637.025 785.285 641.667 785.285 647.393C785.285 653.119 790.563 657.761 797.073 657.761Z" fill="#6EADAE"/>
<path d="M1120.41 820.994H810.546C807.418 820.994 805.012 823.646 805.012 826.54C805.012 829.674 807.659 832.085 810.546 832.085H1120.41C1123.54 832.085 1125.94 829.433 1125.94 826.54C1126.18 823.646 1123.54 820.994 1120.41 820.994Z" fill="#6EADAE"/>
<path d="M1057.62 650.046L1010.71 494.528L1010.47 493.323H918.565L918.806 494.528L923.136 508.995L933.722 543.956L936.368 552.636L949.6 596.519L952.246 605.199L960.426 632.445L964.756 646.911L1019.61 828.71H1028.27L1021.53 806.045H1095.87L1102.61 828.71H1111.27L1057.62 650.046ZM929.873 502.244H1004.21L1006.38 509.236L1016.96 544.197H942.623L929.873 502.244ZM945.269 552.878H1019.61L1032.84 596.76H958.501L945.269 552.878ZM969.327 632.686L964.997 618.219L961.148 605.44H1035.49L1048 646.67C1046.07 646.67 1043.67 646.67 1040.78 646.67C1032.84 646.67 1022.49 646.67 1012.15 646.67C996.031 646.67 980.153 646.911 973.658 646.911L969.327 632.686ZM976.304 655.591C1003.97 655.35 1040.78 655.35 1050.64 655.35L1063.39 698.027H989.055L976.304 655.591ZM991.701 706.948H1066.04L1078.79 749.384H1004.45L991.701 706.948ZM1018.89 797.365L1007.1 758.064H1081.44L1093.22 797.365H1018.89Z" fill="#AEAEAE"/>
<path d="M919.287 493.563L919.046 494.769L872.133 650.045L818.244 828.709H826.905L833.641 806.044H907.979L901.243 828.709H909.904L964.756 646.91L969.086 632.444L977.266 605.439L979.912 596.759L993.144 552.877L995.79 544.197L1006.38 509.235L1010.71 494.769L1010.95 493.563H919.287ZM910.866 797.364H836.528L848.316 758.063H922.655L910.866 797.364ZM925.301 749.383H850.963L863.713 706.947H938.052L925.301 749.383ZM940.698 698.267H866.36L879.11 655.59C889.214 655.349 925.782 655.59 953.449 655.831L940.698 698.267ZM964.996 618.218L960.666 632.685L956.335 647.151C949.84 647.151 933.962 646.91 917.843 646.91C907.498 646.91 896.913 646.91 889.214 646.91C886.327 646.91 883.922 646.91 881.997 646.91L894.507 605.68H968.845L964.996 618.218ZM971.251 596.759H896.913L910.145 552.877H984.483L971.251 596.759ZM987.129 544.197H912.791L923.376 509.235L925.542 502.243H999.88L987.129 544.197Z" fill="#E8E8E8"/>
<path d="M1089.13 842.694H1041.74H1010.22H966.198C963.071 842.694 960.424 845.347 960.424 848.481C960.424 851.615 963.071 854.268 966.198 854.268H1041.74C1043.9 854.268 1046.07 853.062 1047.03 851.133H1089.13C1091.54 851.133 1093.46 849.204 1093.46 846.793C1093.46 844.382 1091.54 842.694 1089.13 842.694Z" fill="#6EADAE"/>
<path d="M1083.6 776.87V843.659C1083.6 844.864 1082.64 845.587 1081.68 845.587H1021.29C1020.09 845.587 1019.37 844.623 1019.37 843.659V776.629H1083.6V776.87Z" fill="#E8E8E8"/>
<path d="M1082.4 776.87H1079.99C1079.99 761.198 1067.24 748.419 1051.6 748.419C1035.97 748.419 1023.21 761.198 1023.21 776.87H1020.81C1020.81 759.751 1034.76 745.767 1051.84 745.767C1068.44 745.767 1082.4 759.751 1082.4 776.87Z" fill="#E8E8E8"/>
<path d="M1083.6 776.87V789.891C1081.68 790.373 1079.03 788.444 1076.62 788.203C1074.46 787.962 1072.29 788.926 1071.33 790.614C1070.13 792.302 1070.13 794.954 1068.68 796.159C1067 797.606 1064.35 796.883 1062.43 795.918C1060.5 794.954 1058.58 793.266 1056.41 793.266C1054.73 793.266 1053.05 793.989 1051.84 795.195C1051.12 795.677 1050.64 796.401 1050.16 797.124C1048.96 799.294 1048.48 801.946 1047.99 804.357C1047.75 806.286 1047.03 808.456 1045.35 809.18C1044.39 809.662 1043.18 809.421 1041.98 809.18C1038.13 807.974 1035 804.839 1034.04 801.223C1032.84 797.365 1033.32 792.302 1029.47 790.373C1027.79 789.649 1025.86 789.891 1024.18 789.408C1022.25 789.167 1020.57 787.962 1019.61 786.515V776.87H1083.6Z" fill="#6EADAE"/>
<path opacity="0.2" d="M1051.6 745.767V748.178C1035.96 748.178 1023.21 760.957 1023.21 776.629H1020.81C1020.57 759.751 1034.52 745.767 1051.6 745.767Z" fill="#444444"/>
<path opacity="0.2" d="M1019.37 776.87H1051.6V845.829H1021.53C1020.33 845.829 1019.61 844.864 1019.61 843.9V776.87H1019.37Z" fill="#444444"/>
<path d="M1035.97 781.452V847.757C1035.97 848.963 1035 849.686 1034.04 849.686H974.138C972.935 849.686 972.214 848.722 972.214 847.757V781.452H1035.97Z" fill="#E8E8E8"/>
<path d="M1034.52 781.452H1032.12C1032.12 765.779 1019.37 753.242 1003.97 753.242C988.332 753.242 975.822 765.779 975.822 781.452H973.416C973.416 764.574 987.129 750.83 1003.97 750.83C1020.81 750.589 1034.52 764.574 1034.52 781.452Z" fill="#E8E8E8"/>
<path d="M1035.97 781.452V794.231C1034.04 794.713 1031.4 793.025 1028.99 792.543C1027.07 792.302 1024.66 793.266 1023.7 794.954C1022.49 796.642 1022.49 799.053 1021.05 800.499C1019.37 801.946 1016.72 801.223 1014.8 800.258C1012.87 799.294 1010.95 797.847 1008.78 797.606C1007.1 797.606 1005.41 798.329 1004.21 799.535C1003.49 800.017 1003.01 800.741 1002.53 801.464C1001.32 803.634 1000.84 806.286 1000.6 808.697C1000.36 810.626 999.64 812.796 997.956 813.52C996.993 814.002 995.79 813.761 994.587 813.52C990.738 812.314 987.611 809.421 986.648 805.563C985.445 801.705 985.927 796.642 982.318 794.954C980.634 794.231 978.709 794.472 977.025 793.989C975.101 793.748 973.657 792.543 972.454 791.337V781.693H1035.97V781.452Z" fill="#A1D9DA"/>
<path opacity="0.2" d="M975.823 781.451H1003.97V849.686H974.138C972.936 849.686 972.214 848.721 972.214 847.757V781.451H973.417C973.417 764.573 987.13 750.83 1003.97 750.83V753.241C988.333 753.241 975.823 765.779 975.823 781.451Z" fill="#444444"/>
<path d="M604.371 813.52H390.497C386.648 813.52 383.761 816.654 383.761 820.271C383.761 824.129 386.889 827.022 390.497 827.022H604.371C608.22 827.022 611.107 823.888 611.107 820.271C611.347 816.654 608.22 813.52 604.371 813.52Z" fill="#6EADAE"/>
<path d="M463.633 528.043H453.047V811.35H463.633V528.043Z" fill="#E8E8E8"/>
<path d="M461.226 537.929C494.841 537.929 522.092 510.617 522.092 476.927C522.092 443.237 494.841 415.926 461.226 415.926C427.611 415.926 400.36 443.237 400.36 476.927C400.36 510.617 427.611 537.929 461.226 537.929Z" fill="#A1D9DA"/>
<path d="M461.227 529.49C490.192 529.49 513.673 505.957 513.673 476.927C513.673 447.898 490.192 424.365 461.227 424.365C432.262 424.365 408.781 447.898 408.781 476.927C408.781 505.957 432.262 529.49 461.227 529.49Z" fill="#A1D9DA"/>
<path d="M461.227 530.936C431.396 530.936 407.338 506.584 407.338 476.927C407.338 447.029 431.636 422.918 461.227 422.918C491.059 422.918 515.116 447.271 515.116 476.927C515.116 506.825 490.818 530.936 461.227 530.936ZM461.227 426.053C433.08 426.053 410.465 448.958 410.465 476.927C410.465 505.137 433.32 527.802 461.227 527.802C489.375 527.802 511.989 504.896 511.989 476.927C511.989 448.958 489.375 426.053 461.227 426.053Z" fill="#444444"/>
<path d="M497.553 465.595L493.223 461.255C492.261 462.219 490.817 462.219 489.855 461.255L489.374 460.773L490.577 459.567C490.817 459.326 490.817 458.844 490.577 458.362L479.51 447.271C479.51 447.271 471.09 441.002 463.632 445.583L465.797 447.512C465.797 447.512 469.165 447.271 473.255 448.958C474.939 449.682 475.18 451.852 473.977 453.057L472.774 454.263C471.812 455.227 471.812 456.915 472.774 458.121L473.736 459.085L451.122 481.75L450.641 481.267C450.16 480.785 449.438 480.785 448.957 481.267L428.748 501.521C427.545 502.726 427.545 504.655 428.748 506.102L432.598 509.96C433.8 511.165 435.725 511.165 437.169 509.96L457.377 489.706C457.858 489.224 457.858 488.501 457.377 488.018L456.896 487.536L479.51 464.872L481.675 467.042C481.916 467.283 482.397 467.283 482.878 467.042L484.081 465.836L484.562 466.318C485.525 467.283 485.525 468.729 484.562 469.694L488.893 474.034C489.374 474.516 490.336 474.516 490.817 474.034L497.553 467.283C498.035 466.801 498.035 466.077 497.553 465.595Z" fill="#444444"/>
<path d="M460.745 468.73L454.49 474.999L444.145 464.631C440.055 466.318 435.244 465.354 431.876 461.978C428.507 458.603 428.507 453.057 429.951 448.958L437.409 457.88C437.89 458.362 438.852 458.603 439.333 457.88L443.664 453.54C444.145 453.057 444.145 452.093 443.664 451.611L434.762 444.136C438.852 442.448 444.386 442.69 447.754 446.065C451.122 449.441 451.843 454.263 450.4 458.362L460.745 468.73Z" fill="#444444"/>
<path d="M479.029 497.663C478.548 498.145 478.548 499.11 479.029 499.592L487.931 507.066C483.841 508.754 478.307 508.513 474.939 505.138C471.571 501.762 470.85 496.94 472.293 492.841L463.632 484.161L469.887 477.892L478.548 486.572C482.638 484.884 487.449 485.849 490.818 489.224C494.186 492.6 494.186 498.145 492.742 502.244L485.284 493.323C484.803 492.841 483.841 492.6 483.36 493.323L479.029 497.663Z" fill="#444444"/>
<path d="M471.812 811.35H444.868C441.5 811.35 438.613 814.243 438.613 817.619V822.2H478.067V817.619C478.067 814.243 475.181 811.35 471.812 811.35Z" fill="#AEAEAE"/>
<path opacity="0.2" d="M458.34 415.926V822.2H438.613V817.619C438.613 814.243 441.5 811.35 444.868 811.35H453.048V537.446C423.216 533.589 400.121 507.79 400.121 476.927C400.121 444.136 426.103 417.373 458.34 415.926Z" fill="#444444"/>
<path d="M419.848 825.816H340.458C337.09 825.816 334.203 828.71 334.203 832.085C334.203 835.702 337.09 838.354 340.458 838.354H419.848C423.216 838.354 426.103 835.461 426.103 832.085C426.103 828.71 423.457 825.816 419.848 825.816Z" fill="#6EADAE"/>
<path d="M402.766 797.365L397.714 777.835L391.459 753.242L387.61 737.569C385.926 730.577 378.468 730.577 376.784 737.569L372.694 753.242L366.439 777.835L361.387 797.365L355.132 821.959H409.021L402.766 797.365Z" fill="#A1D9DA"/>
<path d="M418.404 821.959H345.75V832.326H418.404V821.959Z" fill="#A1D9DA"/>
<path d="M409.021 821.958H355.132L361.387 797.365H402.766L409.021 821.958Z" fill="#444444"/>
<path d="M397.714 777.835H366.439L372.694 753.483H391.459L397.714 777.835Z" fill="#444444"/>
<path opacity="0.2" d="M382.077 732.505V832.326H345.75V821.958H355.132L361.387 797.365L366.439 777.835L372.694 753.241L376.784 737.569C377.506 734.193 379.911 732.505 382.077 732.505Z" fill="#444444"/>
<path d="M589.455 804.839H521.853L529.792 782.898L536.047 765.297L543.986 743.356L549.038 729.371C550.241 726.237 552.887 724.79 555.774 724.79C558.661 724.79 561.548 726.237 562.51 729.371L567.562 743.356L575.501 765.297L581.756 782.898L589.455 804.839Z" fill="#6EADAE"/>
<path d="M601.003 804.839H510.306V821.235H601.003V804.839Z" fill="#6EADAE"/>
<path d="M589.455 804.839H522.094L529.792 782.657H581.757L589.455 804.839Z" fill="white"/>
<path d="M575.502 765.297H536.047L543.986 743.356H567.563L575.502 765.297Z" fill="white"/>
<path opacity="0.2" d="M555.775 724.549V820.994H510.306V804.598H521.854L529.793 782.657L536.048 765.056L543.987 743.115L549.039 729.13C550.001 725.996 552.888 724.549 555.775 724.549Z" fill="#444444"/>
</g>
<defs>
<clipPath id="clip0">
<rect width="1440" height="1024" fill="white"/>
</clipPath>
</defs>
</svg>
